<svg width="169" height="23" viewBox="0 0 169 23" fill="none" xmlns="http://www.w3.org/2000/svg">
    <path d="M0.962067 1.37793H8.73127C12.36 1.37793 16.3609 2.11284 16.3609 6.61415C16.3609 8.91074 14.9187 10.4724 12.7787 11.1614V11.2073C15.5235 11.5748 17.3379 13.5498 17.3379 16.2139C17.3379 20.5315 13.1974 21.9554 9.52214 21.9554H0.962067V1.37793ZM5.52124 9.59972H8.87083C10.2665 9.59972 11.7552 9.0026 11.7552 7.34906C11.7552 5.64958 10.1269 5.19027 8.68474 5.19027H5.56776V9.59972H5.52124ZM5.52124 18.143H9.66171C11.1039 18.143 12.7322 17.5459 12.7322 15.7086C12.7322 13.7795 10.5456 13.458 9.0104 13.458H5.52124V18.143Z" fill="white"/>
    <path d="M21.7109 0.872803C23.1066 0.872803 24.2697 2.0211 24.2697 3.39905C24.2697 4.777 23.1066 5.9253 21.7109 5.9253C20.3153 5.9253 19.1522 4.777 19.1522 3.39905C19.1522 2.0211 20.3153 0.872803 21.7109 0.872803ZM19.5244 7.85443H23.944V22.0014H19.5244V7.85443Z" fill="white"/>
    <path d="M36.8306 11.3452H32.9228V16.0761C32.9228 17.5919 33.1089 18.6942 35.0163 18.6942C35.4815 18.6942 36.4119 18.6483 36.8306 18.2809V21.9095C35.8537 22.2769 34.7837 22.3229 33.7602 22.3229C30.8293 22.3229 28.5497 21.1286 28.5497 18.0512V11.3452H25.7119V7.85435H28.5497V3.67456H32.9693V7.85435H36.8772V11.3452H36.8306Z" fill="white"/>
    <path d="M48.7868 12.4016C48.3681 11.8045 47.5307 11.3451 46.6003 11.3451C44.4137 11.3451 43.0646 12.815 43.0646 14.9278C43.0646 17.0407 44.3672 18.5105 46.6003 18.5105C47.5772 18.5105 48.2751 18.0052 48.7868 17.4541L51.7177 20.4856C50.322 21.8635 48.3216 22.3688 46.6468 22.3688C42.2272 22.3688 38.6915 19.4751 38.6915 14.9737C38.6915 10.4724 42.2272 7.57874 46.6468 7.57874C48.3216 7.57874 50.3686 8.08398 51.7177 9.46194L48.7868 12.4016Z" fill="white"/>
    <path d="M60.6965 7.48682C65.1161 7.48682 68.6518 10.3805 68.6518 14.8818C68.6518 19.3831 65.1161 22.2768 60.6965 22.2768C56.2769 22.2768 52.7412 19.3831 52.7412 14.8818C52.7412 10.3805 56.2769 7.48682 60.6965 7.48682ZM60.6965 18.4645C62.883 18.4645 64.2322 16.9947 64.2322 14.8818C64.2322 12.769 62.9296 11.2992 60.6965 11.2992C58.5099 11.2992 57.1608 12.769 57.1608 14.8818C57.1608 16.9947 58.5099 18.4645 60.6965 18.4645Z" fill="white"/>
    <path d="M73.4901 0.872803C74.8857 0.872803 76.0488 2.0211 76.0488 3.39905C76.0488 4.777 74.8857 5.9253 73.4901 5.9253C72.0944 5.9253 70.9313 4.777 70.9313 3.39905C70.9313 2.0211 72.0944 0.872803 73.4901 0.872803ZM71.3035 7.85443H75.7231V22.0014H71.3035V7.85443Z" fill="white"/>
    <path d="M78.8867 7.85436H83.1202V9.78349H83.1667C83.7715 8.68113 85.2137 7.53284 87.3537 7.53284C91.8198 7.53284 92.6572 10.4265 92.6572 14.2389V22.0473H88.2376V15.0656C88.2376 13.458 88.1911 11.3452 85.958 11.3452C83.6784 11.3452 83.3063 13.1365 83.3063 14.9278V21.9554H78.8867V7.85436Z" fill="white"/>
    <path d="M96.7046 21.9554H94.239L103.311 1.37793H105.358L114.43 21.9554H111.964L109.684 16.5354H99.0307L96.7046 21.9554ZM99.7751 14.6522H108.8L104.288 3.85824L99.7751 14.6522Z" fill="white"/>
    <path d="M116.523 0H118.477V10.6562H118.524C119.78 8.8189 122.059 8.03806 123.874 8.03806C128.154 8.03806 131.224 11.0696 131.224 15.2034C131.224 19.3373 128.2 22.3688 123.874 22.3688C122.059 22.3688 119.78 21.5879 118.524 19.7507H118.477V22.0013H116.523V0ZM123.874 9.78347C120.71 9.78347 118.384 12.126 118.384 15.1575C118.384 18.189 120.71 20.5774 123.874 20.5774C127.084 20.5774 129.084 18.2349 129.084 15.1575C129.084 12.0801 127.084 9.78347 123.874 9.78347Z" fill="white"/>
    <path d="M141.133 22.3229C136.853 22.3229 133.829 19.2914 133.829 15.1575C133.829 11.0237 136.853 7.99219 141.133 7.99219C145.413 7.99219 148.484 11.0237 148.484 15.1575C148.484 19.2914 145.413 22.3229 141.133 22.3229ZM141.133 9.78353C137.97 9.78353 135.969 12.126 135.969 15.2035C135.969 18.2809 137.97 20.6234 141.133 20.6234C144.343 20.6234 146.344 18.2809 146.344 15.2035C146.344 12.126 144.343 9.78353 141.133 9.78353Z" fill="white"/>
    <path d="M153.927 14.5144L160.44 8.35958H163.371L156.532 14.5604L164.115 21.9554H161.091L153.927 14.79V21.9554H151.973V0H153.927V14.5144Z" fill="white"/>
    <path d="M167.558 4.54729C166.86 4.54729 166.162 3.95017 166.162 3.16933C166.162 2.34256 166.86 1.79138 167.558 1.79138C168.256 1.79138 168.953 2.38849 168.953 3.16933C169 3.95017 168.302 4.54729 167.558 4.54729ZM168.535 21.9554H166.581V8.35962H168.535V21.9554Z" fill="white"/>
</svg>    