<svg width="13" height="22" viewBox="0 0 13 22" fill="none" xmlns="http://www.w3.org/2000/svg">
    <path d="M1 11.3173L10.3575 1.5L6.8347 9.50714L11.7667 10.3214L2.95958 20.5L5.77785 12.7547L1 11.3173Z" fill="#360732"/>
    <path d="M10.3575 1.5L10.8229 1.70476C10.9224 1.47872 10.845 1.2139 10.6395 1.07693C10.4341 0.939956 10.1599 0.970436 9.98949 1.14919L10.3575 1.5ZM1 11.3173L0.631956 10.9665C0.510028 11.0944 0.463265 11.2765 0.508452 11.4473C0.553638 11.6182 0.684291 11.7533 0.853517 11.8042L1 11.3173ZM5.77785 12.7547L6.25565 12.9286C6.30347 12.7972 6.29505 12.6518 6.23236 12.5268C6.16967 12.4018 6.05825 12.3081 5.92433 12.2678L5.77785 12.7547ZM2.95958 20.5L2.48177 20.3261C2.3979 20.5566 2.49055 20.8142 2.70204 20.9384C2.91354 21.0626 3.18358 21.0182 3.34408 20.8327L2.95958 20.5ZM11.7667 10.3214L12.1512 10.6541C12.2716 10.515 12.3074 10.3216 12.2448 10.1485C12.1823 9.97549 12.0311 9.84975 11.8495 9.81977L11.7667 10.3214ZM6.8347 9.50714L6.3693 9.30239C6.30603 9.44618 6.31279 9.61114 6.3876 9.74928C6.46241 9.88741 6.59688 9.98321 6.75187 10.0088L6.8347 9.50714ZM9.98949 1.14919L0.631956 10.9665L1.36804 11.6681L10.7256 1.85081L9.98949 1.14919ZM0.853517 11.8042L5.63136 13.2416L5.92433 12.2678L1.14648 10.8304L0.853517 11.8042ZM5.30004 12.5809L2.48177 20.3261L3.43738 20.6739L6.25565 12.9286L5.30004 12.5809ZM3.34408 20.8327L12.1512 10.6541L11.3822 9.98874L2.57508 20.1673L3.34408 20.8327ZM11.8495 9.81977L6.91752 9.00548L6.75187 10.0088L11.6838 10.8231L11.8495 9.81977ZM7.3001 9.7119L10.8229 1.70476L9.89213 1.29524L6.3693 9.30239L7.3001 9.7119Z" fill="#360732"/>
</svg>    