<svg width="25" height="36" viewBox="0 0 25 36" fill="none" xmlns="http://www.w3.org/2000/svg">
    <path d="M24.1702 35.0516H12.0263C11.5203 35.0516 11.0143 35.0056 10.5544 34.9596C6.13839 34.3616 2.41243 31.4177 0.802443 27.2777C0.526445 26.4957 0.296443 25.7137 0.158444 24.8857C0.0664452 24.4717 0.0204443 24.0577 0.0204443 23.6437C0.0204443 23.2297 -0.0255553 22.8157 0.0204443 22.4017C0.112443 19.7798 1.12443 17.2498 2.78042 15.2718C3.93041 13.8918 5.3564 12.7418 7.01239 12.0058C7.93238 11.5919 8.94437 11.2699 9.95636 11.0859C10.3244 11.0399 10.6923 10.9939 11.0603 10.9479C11.5663 10.9019 12.1183 10.9019 12.6243 10.9019C13.6363 10.9479 14.6023 11.0859 15.5683 11.4079C19.7083 12.6498 22.8822 16.0078 23.8942 20.2398C23.9862 20.6998 24.0782 21.1598 24.1242 21.6198C24.1702 22.1718 24.2162 22.6777 24.2162 23.2297C24.2162 27.1397 24.2162 31.0497 24.2162 34.9596L24.1702 35.0516ZM16.3043 31.6937H20.5823C20.8123 31.6937 20.7663 31.6937 20.7663 31.4637C20.7663 28.7497 20.7663 26.0817 20.7663 23.3677C20.7663 23.1377 20.7663 22.9077 20.7663 22.6778C20.7663 22.3098 20.7203 21.8958 20.6743 21.5278C20.3983 19.8718 19.6623 18.3078 18.5123 17.0658C16.9483 15.3638 14.7863 14.3518 12.4863 14.2598C10.9223 14.1678 9.40436 14.5358 8.02437 15.2258C5.2644 16.6518 3.51642 19.4578 3.33242 22.5398C3.24042 24.2417 3.65441 25.9897 4.57441 27.4617C5.8164 29.5317 7.84038 31.0037 10.2324 31.5097C10.8764 31.6477 11.5663 31.6937 12.2563 31.6937H16.3043Z" fill="#EC3524"/>
    <path d="M0.0203552 0H12.1642C12.6702 0 13.1762 0.0459982 13.6822 0.0919978C18.0982 0.689992 21.8242 3.58797 23.4341 7.72793C23.7101 8.50992 23.9401 9.29191 24.0781 10.1199C24.1701 10.5339 24.2161 10.9479 24.2161 11.3619C24.2161 11.7759 24.2621 12.1899 24.2161 12.6039C24.1241 15.2259 23.1121 17.7558 21.4562 19.7798C20.3062 21.1598 18.8802 22.3098 17.2242 23.0458C16.3042 23.4598 15.2922 23.7818 14.2802 23.9658C13.9122 24.0118 13.5442 24.0578 13.1762 24.1038C12.6702 24.1498 12.1182 24.1498 11.6123 24.1498C10.6003 24.1038 9.63427 23.9658 8.66828 23.6438C4.52832 22.4018 1.35435 19.0438 0.342358 14.8119C0.250359 14.3519 0.15836 13.8919 0.11236 13.4319C0.0663604 12.9259 0.0203552 12.3739 0.0203552 11.8679C0.0203552 7.95793 0.0203552 4.04796 0.0203552 0.138V0ZM7.88629 3.35797H3.60832C3.37833 3.35797 3.42433 3.35797 3.42433 3.58797C3.42433 6.30194 3.42433 8.96992 3.42433 11.6839C3.42433 11.9139 3.42433 12.1439 3.42433 12.3739C3.42433 12.7419 3.47033 13.1559 3.51633 13.5239C3.79232 15.1799 4.52832 16.7438 5.6783 17.9858C7.24229 19.6878 9.40427 20.6998 11.7043 20.7918C13.2682 20.8838 14.7862 20.5158 16.1662 19.8258C18.9262 18.3998 20.7202 15.5939 20.8582 12.5119C20.9502 10.8099 20.4902 9.10792 19.6162 7.63593C18.3742 5.56595 16.3502 4.09396 13.9582 3.58797C13.3142 3.44997 12.6242 3.40397 11.9342 3.40397L7.88629 3.35797Z" fill="#F1B83F"/>
</svg>    