<svg width="364" height="92" viewBox="0 0 364 92" fill="none" xmlns="http://www.w3.org/2000/svg">
    <g filter="url(#filter0_b)">
    <rect width="363.267" height="91.0696" rx="13.1545" fill="#F5F5F5" fill-opacity="0.6"/>
    </g>
    <path d="M16.0131 70.9314L12.0061 64.8146H13.6301L16.6506 69.6716L19.7622 64.8146H21.2952L17.2881 70.9314V75.5608H16.0131V70.9314ZM19.9355 72.0091C19.9355 71.4525 20.0317 70.9466 20.2239 70.4912C20.4162 70.0359 20.6793 69.6463 21.0132 69.3225C21.3471 68.9886 21.7468 68.7306 22.2123 68.5484C22.6777 68.3663 23.1837 68.2752 23.7301 68.2752C24.2765 68.2752 24.7825 68.3663 25.2479 68.5484C25.7134 68.7306 26.1131 68.9886 26.447 69.3225C26.7809 69.6463 27.044 70.0359 27.2363 70.4912C27.4285 70.9466 27.5247 71.4525 27.5247 72.0091C27.5247 72.5656 27.4285 73.0716 27.2363 73.5269C27.044 73.9823 26.7809 74.3769 26.447 74.7108C26.1131 75.0346 25.7134 75.2876 25.2479 75.4697C24.7825 75.6519 24.2765 75.7429 23.7301 75.7429C23.1837 75.7429 22.6777 75.6519 22.2123 75.4697C21.7468 75.2876 21.3471 75.0346 21.0132 74.7108C20.6793 74.3769 20.4162 73.9823 20.2239 73.5269C20.0317 73.0716 19.9355 72.5656 19.9355 72.0091ZM21.2105 72.0091C21.2105 72.3835 21.2662 72.7326 21.3775 73.0564C21.4989 73.3701 21.6709 73.6483 21.8935 73.8912C22.1161 74.1239 22.3792 74.3111 22.6828 74.4528C22.9965 74.5843 23.3456 74.6501 23.7301 74.6501C24.1146 74.6501 24.4587 74.5843 24.7622 74.4528C25.0759 74.3111 25.3441 74.1239 25.5667 73.8912C25.7893 73.6483 25.9562 73.3701 26.0676 73.0564C26.189 72.7326 26.2497 72.3835 26.2497 72.0091C26.2497 71.6347 26.189 71.2906 26.0676 70.977C25.9562 70.6531 25.7893 70.3749 25.5667 70.1421C25.3441 69.8993 25.0759 69.7121 24.7622 69.5806C24.4587 69.4389 24.1146 69.3681 23.7301 69.3681C23.3456 69.3681 22.9965 69.4389 22.6828 69.5806C22.3792 69.7121 22.1161 69.8993 21.8935 70.1421C21.6709 70.3749 21.4989 70.6531 21.3775 70.977C21.2662 71.2906 21.2105 71.6347 21.2105 72.0091ZM35.3073 73.876C35.3073 74.1998 35.3174 74.5034 35.3377 74.7867C35.3579 75.07 35.368 75.3281 35.368 75.5608H34.2448C34.2448 75.3685 34.2398 75.1763 34.2297 74.984C34.2195 74.7918 34.2145 74.5944 34.2145 74.3921H34.1841C34.1032 74.5641 33.9868 74.731 33.835 74.8929C33.6934 75.0548 33.5213 75.2016 33.319 75.3331C33.1166 75.4545 32.8889 75.5507 32.6359 75.6215C32.383 75.7025 32.1098 75.7429 31.8163 75.7429C31.3509 75.7429 30.9461 75.6721 30.6021 75.5304C30.2681 75.3888 29.9899 75.1915 29.7673 74.9385C29.5446 74.6855 29.3777 74.3819 29.2664 74.0278C29.1652 73.6635 29.1146 73.2689 29.1146 72.8439V68.4574H30.2985V72.7225C30.2985 73.3195 30.43 73.79 30.6931 74.134C30.9562 74.4781 31.366 74.6501 31.9226 74.6501C32.3071 74.6501 32.6359 74.5843 32.9092 74.4528C33.1925 74.3212 33.4202 74.134 33.5922 73.8912C33.7743 73.6483 33.9059 73.3599 33.9868 73.026C34.0779 72.6921 34.1234 72.3228 34.1234 71.918V68.4574H35.3073V73.876ZM37.3058 70.1421C37.3058 69.8183 37.2956 69.5148 37.2754 69.2315C37.2552 68.9481 37.245 68.6901 37.245 68.4574H38.3682C38.3682 68.6496 38.3733 68.8419 38.3834 69.0341C38.3935 69.2264 38.3986 69.4237 38.3986 69.6261H38.429C38.5099 69.4541 38.6212 69.2871 38.7629 69.1252C38.9147 68.9633 39.0917 68.8216 39.2941 68.7002C39.4965 68.5687 39.7242 68.4675 39.9771 68.3966C40.2301 68.3157 40.5033 68.2752 40.7968 68.2752C40.8777 68.2752 40.9587 68.2803 41.0396 68.2904C41.1206 68.3005 41.2015 68.3208 41.2825 68.3511L41.2066 69.5502C41.0042 69.4895 40.7917 69.4591 40.5691 69.4591C39.8405 69.4591 39.3093 69.6969 38.9754 70.1725C38.6516 70.638 38.4897 71.2805 38.4897 72.1001V75.5608H37.3058V70.1421ZM46.2895 69.3681C46.6538 68.9937 47.0838 68.7204 47.5797 68.5484C48.0856 68.3663 48.5966 68.2752 49.1127 68.2752C50.165 68.2752 50.924 68.5231 51.3894 69.019C51.8549 69.5148 52.0876 70.2686 52.0876 71.2805V74.3314C52.0876 74.5337 52.0977 74.7462 52.118 74.9688C52.1382 75.1813 52.1635 75.3787 52.1939 75.5608H51.0555C51.015 75.3989 50.9897 75.2218 50.9796 75.0296C50.9796 74.8272 50.9796 74.6501 50.9796 74.4983H50.9492C50.7165 74.8626 50.4028 75.1611 50.0082 75.3938C49.6237 75.6266 49.1582 75.7429 48.6118 75.7429C48.2475 75.7429 47.9035 75.6974 47.5797 75.6063C47.266 75.5153 46.9877 75.3837 46.7449 75.2117C46.5121 75.0296 46.3249 74.8069 46.1833 74.5438C46.0416 74.2808 45.9708 73.9772 45.9708 73.6332C45.9708 73.0463 46.1226 72.5858 46.4261 72.2519C46.7297 71.918 47.1041 71.6701 47.5493 71.5082C48.0047 71.3463 48.4904 71.2451 49.0064 71.2046C49.5326 71.1642 50.0133 71.1439 50.4484 71.1439H50.9037V70.9314C50.9037 70.4154 50.7469 70.0258 50.4332 69.7627C50.1296 69.4996 49.6996 69.3681 49.143 69.3681C48.7585 69.3681 48.3791 69.4338 48.0047 69.5654C47.6404 69.6868 47.3166 69.8791 47.0333 70.1421L46.2895 69.3681ZM49.7198 72.1457C48.9609 72.1457 48.3588 72.2519 47.9136 72.4644C47.4684 72.6769 47.2458 73.026 47.2458 73.5117C47.2458 73.957 47.3925 74.2757 47.6859 74.468C47.9895 74.6501 48.3639 74.7412 48.8091 74.7412C49.1532 74.7412 49.4517 74.6855 49.7046 74.5742C49.9677 74.4528 50.1853 74.2959 50.3573 74.1037C50.5293 73.9114 50.6609 73.6888 50.7519 73.4358C50.843 73.1727 50.8936 72.8945 50.9037 72.601V72.1457H49.7198ZM59.0629 70.2332C58.8099 69.9297 58.5367 69.7121 58.2432 69.5806C57.9498 69.4389 57.626 69.3681 57.2718 69.3681C56.8772 69.3681 56.5281 69.4389 56.2245 69.5806C55.921 69.7121 55.668 69.8993 55.4656 70.1421C55.2734 70.385 55.1266 70.6683 55.0254 70.9921C54.9243 71.3058 54.8737 71.6448 54.8737 72.0091C54.8737 72.3734 54.9293 72.7174 55.0406 73.0412C55.162 73.3549 55.324 73.6332 55.5263 73.876C55.7388 74.1189 55.9918 74.3111 56.2852 74.4528C56.5787 74.5843 56.9076 74.6501 57.2718 74.6501C58.051 74.6501 58.6531 74.3566 59.078 73.7698L59.9584 74.6046C59.6143 74.9992 59.2096 75.2876 58.7441 75.4697C58.2787 75.6519 57.7879 75.7429 57.2718 75.7429C56.7254 75.7429 56.2245 75.6519 55.7692 75.4697C55.3138 75.2876 54.9243 75.0296 54.6005 74.6956C54.2868 74.3617 54.0389 73.9671 53.8567 73.5117C53.6847 73.0564 53.5987 72.5555 53.5987 72.0091C53.5987 71.4728 53.6847 70.977 53.8567 70.5216C54.0389 70.0663 54.2918 69.6716 54.6156 69.3377C54.9394 69.0038 55.324 68.7457 55.7692 68.5636C56.2245 68.3713 56.7254 68.2752 57.2718 68.2752C57.798 68.2752 58.2938 68.3663 58.7593 68.5484C59.2349 68.7306 59.6498 69.0139 60.0039 69.3984L59.0629 70.2332ZM66.1423 70.2332C65.8894 69.9297 65.6162 69.7121 65.3227 69.5806C65.0293 69.4389 64.7055 69.3681 64.3513 69.3681C63.9567 69.3681 63.6076 69.4389 63.304 69.5806C63.0004 69.7121 62.7475 69.8993 62.5451 70.1421C62.3528 70.385 62.2061 70.6683 62.1049 70.9921C62.0037 71.3058 61.9531 71.6448 61.9531 72.0091C61.9531 72.3734 62.0088 72.7174 62.1201 73.0412C62.2415 73.3549 62.4034 73.6332 62.6058 73.876C62.8183 74.1189 63.0713 74.3111 63.3647 74.4528C63.6582 74.5843 63.987 74.6501 64.3513 74.6501C65.1305 74.6501 65.7325 74.3566 66.1575 73.7698L67.0379 74.6046C66.6938 74.9992 66.2891 75.2876 65.8236 75.4697C65.3581 75.6519 64.8674 75.7429 64.3513 75.7429C63.8049 75.7429 63.304 75.6519 62.8487 75.4697C62.3933 75.2876 62.0037 75.0296 61.6799 74.6956C61.3662 74.3617 61.1183 73.9671 60.9362 73.5117C60.7642 73.0564 60.6782 72.5555 60.6782 72.0091C60.6782 71.4728 60.7642 70.977 60.9362 70.5216C61.1183 70.0663 61.3713 69.6716 61.6951 69.3377C62.0189 69.0038 62.4034 68.7457 62.8487 68.5636C63.304 68.3713 63.8049 68.2752 64.3513 68.2752C64.8775 68.2752 65.3733 68.3663 65.8388 68.5484C66.3144 68.7306 66.7292 69.0139 67.0834 69.3984L66.1423 70.2332ZM72.0531 69.4591H69.9585V73.0108C69.9585 73.2436 69.9636 73.4611 69.9737 73.6635C69.9838 73.8558 70.0243 74.0278 70.0951 74.1796C70.1659 74.3212 70.2722 74.4376 70.4138 74.5287C70.5555 74.6096 70.7579 74.6501 71.021 74.6501C71.193 74.6501 71.3701 74.6299 71.5522 74.5894C71.7344 74.5489 71.9064 74.4882 72.0683 74.4072L72.1138 75.4849C71.9114 75.576 71.6838 75.6417 71.4308 75.6822C71.1879 75.7227 70.9552 75.7429 70.7326 75.7429C70.3076 75.7429 69.9686 75.6873 69.7156 75.576C69.4627 75.4647 69.2654 75.3078 69.1237 75.1054C68.982 74.9031 68.8859 74.6552 68.8353 74.3617C68.7948 74.0581 68.7746 73.7242 68.7746 73.3599V69.4591H67.2264V68.4574H68.7746V66.4386H69.9585V68.4574H72.0531V69.4591ZM79.2155 69.3681H79.6101C79.8732 69.3681 80.1464 69.3478 80.4297 69.3073C80.7232 69.2669 80.9863 69.1809 81.219 69.0493C81.4618 68.9178 81.6592 68.7306 81.8109 68.4877C81.9728 68.2347 82.0538 67.9059 82.0538 67.5011C82.0538 66.9547 81.8818 66.5247 81.5377 66.211C81.2038 65.8872 80.7636 65.7253 80.2172 65.7253C79.7619 65.7253 79.3672 65.8265 79.0333 66.0288C78.6994 66.2312 78.4363 66.5297 78.2441 66.9244L77.0146 66.4538C77.2777 65.8467 77.6875 65.3913 78.2441 65.0878C78.8107 64.7842 79.4381 64.6324 80.1262 64.6324C80.5512 64.6324 80.9559 64.6931 81.3404 64.8146C81.7351 64.936 82.0791 65.1131 82.3725 65.3458C82.666 65.5785 82.8987 65.872 83.0707 66.2262C83.2428 66.5702 83.3288 66.9749 83.3288 67.4404C83.3288 68.0071 83.1568 68.5181 82.8127 68.9734C82.4788 69.4186 82.0386 69.7273 81.4922 69.8993V69.9297C81.8362 69.9904 82.1398 70.1017 82.4029 70.2636C82.6761 70.4255 82.9088 70.6279 83.1011 70.8707C83.2934 71.1034 83.4401 71.3716 83.5413 71.6752C83.6425 71.9787 83.6931 72.2975 83.6931 72.6314C83.6931 73.1474 83.5969 73.5977 83.4047 73.9823C83.2124 74.3668 82.9544 74.6906 82.6306 74.9537C82.3068 75.2168 81.9273 75.4141 81.4922 75.5456C81.0672 75.6772 80.6169 75.7429 80.1413 75.7429C79.3217 75.7429 78.6083 75.5659 78.0012 75.2117C77.3941 74.8575 76.9539 74.2808 76.6807 73.4814L77.9708 73.0564C78.153 73.6332 78.411 74.043 78.7449 74.2858C79.0789 74.5287 79.5443 74.6501 80.1413 74.6501C80.4449 74.6501 80.7282 74.5995 80.9913 74.4983C81.2544 74.3971 81.4821 74.2555 81.6743 74.0733C81.8767 73.8811 82.0336 73.6584 82.1449 73.4055C82.2663 73.1424 82.327 72.854 82.327 72.5403C82.327 72.1457 82.2461 71.8168 82.0842 71.5537C81.9324 71.2805 81.7249 71.068 81.4618 70.9162C81.2089 70.7543 80.9205 70.638 80.5967 70.5671C80.2729 70.4963 79.944 70.4609 79.6101 70.4609H79.2155V69.3681ZM84.887 70.1877C84.887 69.5806 84.9376 68.9481 85.0388 68.2904C85.14 67.6327 85.3272 67.0357 85.6004 66.4994C85.8736 65.9529 86.243 65.5077 86.7084 65.1637C87.184 64.8095 87.7911 64.6324 88.5298 64.6324C89.2685 64.6324 89.8706 64.8095 90.336 65.1637C90.8116 65.5077 91.186 65.9529 91.4592 66.4994C91.7324 67.0357 91.9196 67.6327 92.0208 68.2904C92.122 68.9481 92.1726 69.5806 92.1726 70.1877C92.1726 70.7948 92.122 71.4272 92.0208 72.085C91.9196 72.7427 91.7324 73.3448 91.4592 73.8912C91.186 74.4275 90.8116 74.8727 90.336 75.2269C89.8706 75.5709 89.2685 75.7429 88.5298 75.7429C87.7911 75.7429 87.184 75.5709 86.7084 75.2269C86.243 74.8727 85.8736 74.4275 85.6004 73.8912C85.3272 73.3448 85.14 72.7427 85.0388 72.085C84.9376 71.4272 84.887 70.7948 84.887 70.1877ZM86.162 70.1877C86.162 70.4508 86.1721 70.7442 86.1924 71.068C86.2126 71.3918 86.248 71.7207 86.2986 72.0546C86.3593 72.3784 86.4403 72.6972 86.5415 73.0108C86.6528 73.3245 86.7944 73.6028 86.9665 73.8456C87.1486 74.0885 87.3662 74.2858 87.6191 74.4376C87.8721 74.5793 88.1757 74.6501 88.5298 74.6501C88.884 74.6501 89.1876 74.5793 89.4405 74.4376C89.6935 74.2858 89.906 74.0885 90.078 73.8456C90.2601 73.6028 90.4018 73.3245 90.503 73.0108C90.6143 72.6972 90.6953 72.3784 90.7459 72.0546C90.8066 71.7207 90.847 71.3918 90.8673 71.068C90.8875 70.7442 90.8976 70.4508 90.8976 70.1877C90.8976 69.9246 90.8875 69.6311 90.8673 69.3073C90.847 68.9835 90.8066 68.6597 90.7459 68.3359C90.6953 68.002 90.6143 67.6782 90.503 67.3645C90.4018 67.0508 90.2601 66.7726 90.078 66.5297C89.906 66.2869 89.6935 66.0946 89.4405 65.9529C89.1876 65.8012 88.884 65.7253 88.5298 65.7253C88.1757 65.7253 87.8721 65.8012 87.6191 65.9529C87.3662 66.0946 87.1486 66.2869 86.9665 66.5297C86.7944 66.7726 86.6528 67.0508 86.5415 67.3645C86.4403 67.6782 86.3593 68.002 86.2986 68.3359C86.248 68.6597 86.2126 68.9835 86.1924 69.3073C86.1721 69.6311 86.162 69.9246 86.162 70.1877ZM96.3264 67.0761L98.4817 66.3476L98.7701 67.2279L96.6299 67.9565L97.9808 69.7627L97.2371 70.3395L95.871 68.4725L94.5505 70.3395L93.7916 69.7627L95.1121 67.9565L92.972 67.2279L93.2603 66.3476L95.4157 67.0761V64.8146H96.3264V67.0761ZM102.828 67.0761L104.983 66.3476L105.271 67.2279L103.131 67.9565L104.482 69.7627L103.738 70.3395L102.372 68.4725L101.052 70.3395L100.293 69.7627L101.614 67.9565L99.4734 67.2279L99.7618 66.3476L101.917 67.0761V64.8146H102.828V67.0761ZM109.329 67.0761L111.484 66.3476L111.773 67.2279L109.633 67.9565L110.984 69.7627L110.24 70.3395L108.874 68.4725L107.553 70.3395L106.794 69.7627L108.115 67.9565L105.975 67.2279L106.263 66.3476L108.418 67.0761V64.8146H109.329V67.0761ZM115.831 67.0761L117.986 66.3476L118.274 67.2279L116.134 67.9565L117.485 69.7627L116.741 70.3395L115.375 68.4725L114.055 70.3395L113.296 69.7627L114.616 67.9565L112.476 67.2279L112.765 66.3476L114.92 67.0761V64.8146H115.831V67.0761ZM122.332 67.0761L124.487 66.3476L124.776 67.2279L122.636 67.9565L123.986 69.7627L123.243 70.3395L121.877 68.4725L120.556 70.3395L119.797 69.7627L121.118 67.9565L118.978 67.2279L119.266 66.3476L121.421 67.0761V64.8146H122.332V67.0761ZM128.833 67.0761L130.989 66.3476L131.277 67.2279L129.137 67.9565L130.488 69.7627L129.744 70.3395L128.378 68.4725L127.058 70.3395L126.299 69.7627L127.619 67.9565L125.479 67.2279L125.767 66.3476L127.923 67.0761V64.8146H128.833V67.0761ZM135.335 67.0761L137.49 66.3476L137.778 67.2279L135.638 67.9565L136.989 69.7627L136.245 70.3395L134.879 68.4725L133.559 70.3395L132.8 69.7627L134.12 67.9565L131.98 67.2279L132.269 66.3476L134.424 67.0761V64.8146H135.335V67.0761ZM141.836 67.0761L143.991 66.3476L144.28 67.2279L142.14 67.9565L143.491 69.7627L142.747 70.3395L141.381 68.4725L140.06 70.3395L139.301 69.7627L140.622 67.9565L138.482 67.2279L138.77 66.3476L140.925 67.0761V64.8146H141.836V67.0761ZM151.707 65.9985H147.321L147.275 68.8975C147.477 68.7963 147.7 68.7306 147.943 68.7002C148.196 68.6597 148.434 68.6395 148.656 68.6395C149.172 68.6395 149.638 68.7306 150.053 68.9127C150.478 69.0847 150.842 69.3326 151.146 69.6564C151.449 69.9701 151.682 70.3445 151.844 70.7796C152.006 71.2046 152.087 71.6701 152.087 72.176C152.087 72.7123 151.99 73.2031 151.798 73.6483C151.616 74.0834 151.358 74.4578 151.024 74.7715C150.7 75.0751 150.311 75.3129 149.855 75.4849C149.41 75.6569 148.924 75.7429 148.398 75.7429C147.579 75.7429 146.916 75.5659 146.41 75.2117C145.914 74.8575 145.519 74.3819 145.226 73.7849L146.501 73.2992C146.683 73.704 146.946 74.0328 147.29 74.2858C147.644 74.5287 148.049 74.6501 148.505 74.6501C148.828 74.6501 149.127 74.5944 149.4 74.4831C149.683 74.3617 149.926 74.1947 150.129 73.9823C150.341 73.7596 150.508 73.4965 150.629 73.193C150.751 72.8894 150.812 72.5504 150.812 72.176C150.812 71.7814 150.741 71.4323 150.599 71.1287C150.468 70.8252 150.28 70.5722 150.038 70.3698C149.805 70.1573 149.527 70.0005 149.203 69.8993C148.879 69.788 148.53 69.7323 148.155 69.7323C147.791 69.7323 147.417 69.7981 147.032 69.9297C146.648 70.0511 146.294 70.2079 145.97 70.4002L146.076 64.8146H151.707V65.9985ZM155.8 69.3681H156.195C156.458 69.3681 156.731 69.3478 157.014 69.3073C157.308 69.2669 157.571 69.1809 157.804 69.0493C158.047 68.9178 158.244 68.7306 158.396 68.4877C158.558 68.2347 158.639 67.9059 158.639 67.5011C158.639 66.9547 158.466 66.5247 158.122 66.211C157.789 65.8872 157.348 65.7253 156.802 65.7253C156.347 65.7253 155.952 65.8265 155.618 66.0288C155.284 66.2312 155.021 66.5297 154.829 66.9244L153.599 66.4538C153.862 65.8467 154.272 65.3913 154.829 65.0878C155.395 64.7842 156.023 64.6324 156.711 64.6324C157.136 64.6324 157.541 64.6931 157.925 64.8146C158.32 64.936 158.664 65.1131 158.957 65.3458C159.251 65.5785 159.483 65.872 159.655 66.2262C159.827 66.5702 159.913 66.9749 159.913 67.4404C159.913 68.0071 159.741 68.5181 159.397 68.9734C159.064 69.4186 158.623 69.7273 158.077 69.8993V69.9297C158.421 69.9904 158.725 70.1017 158.988 70.2636C159.261 70.4255 159.494 70.6279 159.686 70.8707C159.878 71.1034 160.025 71.3716 160.126 71.6752C160.227 71.9787 160.278 72.2975 160.278 72.6314C160.278 73.1474 160.182 73.5977 159.989 73.9823C159.797 74.3668 159.539 74.6906 159.215 74.9537C158.891 75.2168 158.512 75.4141 158.077 75.5456C157.652 75.6772 157.202 75.7429 156.726 75.7429C155.906 75.7429 155.193 75.5659 154.586 75.2117C153.979 74.8575 153.539 74.2808 153.265 73.4814L154.556 73.0564C154.738 73.6332 154.996 74.043 155.33 74.2858C155.664 74.5287 156.129 74.6501 156.726 74.6501C157.03 74.6501 157.313 74.5995 157.576 74.4983C157.839 74.3971 158.067 74.2555 158.259 74.0733C158.461 73.8811 158.618 73.6584 158.73 73.4055C158.851 73.1424 158.912 72.854 158.912 72.5403C158.912 72.1457 158.831 71.8168 158.669 71.5537C158.517 71.2805 158.31 71.068 158.047 70.9162C157.794 70.7543 157.505 70.638 157.181 70.5671C156.858 70.4963 156.529 70.4609 156.195 70.4609H155.8V69.3681ZM163.991 69.2922L164.022 69.3225C164.224 69.2112 164.457 69.1303 164.72 69.0797C164.993 69.0291 165.241 69.0038 165.464 69.0038C165.929 69.0038 166.359 69.0847 166.754 69.2466C167.159 69.4085 167.503 69.6413 167.786 69.9448C168.079 70.2383 168.307 70.5924 168.469 71.0073C168.631 71.4222 168.712 71.8775 168.712 72.3734C168.712 72.8995 168.621 73.3701 168.439 73.7849C168.256 74.1998 168.003 74.554 167.68 74.8474C167.356 75.1307 166.971 75.3534 166.526 75.5153C166.091 75.667 165.62 75.7429 165.115 75.7429C164.609 75.7429 164.133 75.667 163.688 75.5153C163.253 75.3534 162.873 75.1307 162.549 74.8474C162.226 74.554 161.973 74.1998 161.79 73.7849C161.608 73.3701 161.517 72.8995 161.517 72.3734C161.517 71.7561 161.613 71.2147 161.806 70.7493C161.998 70.2838 162.241 69.8183 162.534 69.3529L165.388 64.8146H166.875L163.991 69.2922ZM165.115 70.0966C164.791 70.0966 164.487 70.1523 164.204 70.2636C163.921 70.3648 163.673 70.5165 163.46 70.7189C163.258 70.9112 163.096 71.149 162.974 71.4323C162.853 71.7156 162.792 72.0293 162.792 72.3734C162.792 72.7275 162.853 73.0463 162.974 73.3296C163.096 73.6028 163.258 73.8406 163.46 74.043C163.673 74.2352 163.921 74.387 164.204 74.4983C164.487 74.5995 164.791 74.6501 165.115 74.6501C165.438 74.6501 165.742 74.5995 166.025 74.4983C166.309 74.387 166.551 74.2352 166.754 74.043C166.966 73.8406 167.133 73.6028 167.255 73.3296C167.376 73.0463 167.437 72.7275 167.437 72.3734C167.437 72.0293 167.376 71.7156 167.255 71.4323C167.133 71.149 166.966 70.9112 166.754 70.7189C166.551 70.5165 166.309 70.3648 166.025 70.2636C165.742 70.1523 165.438 70.0966 165.115 70.0966ZM175.446 71.918H176.994V73.1019H175.446V75.5608H174.171V73.1019H169.617V71.6903L173.882 64.8146H175.446V71.918ZM174.171 66.302H174.141L170.71 71.918H174.171V66.302ZM182.382 64.086H183.566V69.4439H183.596C183.677 69.3023 183.789 69.1657 183.93 69.0341C184.072 68.8925 184.239 68.766 184.431 68.6547C184.634 68.5434 184.856 68.4523 185.099 68.3815C185.342 68.3106 185.6 68.2752 185.873 68.2752C186.339 68.2752 186.738 68.3461 187.072 68.4877C187.416 68.6294 187.7 68.8267 187.922 69.0797C188.145 69.3326 188.307 69.6413 188.408 70.0055C188.519 70.3597 188.575 70.7493 188.575 71.1743V75.5608H187.391V71.2957C187.391 70.6987 187.259 70.2282 186.996 69.8841C186.733 69.5401 186.323 69.3681 185.767 69.3681C185.382 69.3681 185.048 69.4338 184.765 69.5654C184.492 69.6969 184.264 69.8841 184.082 70.127C183.91 70.3698 183.778 70.6582 183.687 70.9921C183.606 71.3261 183.566 71.6954 183.566 72.1001V75.5608H182.382V64.086ZM190.482 69.3681C190.846 68.9937 191.277 68.7204 191.772 68.5484C192.278 68.3663 192.789 68.2752 193.305 68.2752C194.358 68.2752 195.117 68.5231 195.582 69.019C196.048 69.5148 196.28 70.2686 196.28 71.2805V74.3314C196.28 74.5337 196.29 74.7462 196.311 74.9688C196.331 75.1813 196.356 75.3787 196.387 75.5608H195.248C195.208 75.3989 195.182 75.2218 195.172 75.0296C195.172 74.8272 195.172 74.6501 195.172 74.4983H195.142C194.909 74.8626 194.595 75.1611 194.201 75.3938C193.816 75.6266 193.351 75.7429 192.804 75.7429C192.44 75.7429 192.096 75.6974 191.772 75.6063C191.459 75.5153 191.18 75.3837 190.938 75.2117C190.705 75.0296 190.518 74.8069 190.376 74.5438C190.234 74.2808 190.163 73.9772 190.163 73.6332C190.163 73.0463 190.315 72.5858 190.619 72.2519C190.922 71.918 191.297 71.6701 191.742 71.5082C192.197 71.3463 192.683 71.2451 193.199 71.2046C193.725 71.1642 194.206 71.1439 194.641 71.1439H195.096V70.9314C195.096 70.4154 194.94 70.0258 194.626 69.7627C194.322 69.4996 193.892 69.3681 193.336 69.3681C192.951 69.3681 192.572 69.4338 192.197 69.5654C191.833 69.6868 191.509 69.8791 191.226 70.1421L190.482 69.3681ZM193.912 72.1457C193.154 72.1457 192.551 72.2519 192.106 72.4644C191.661 72.6769 191.438 73.026 191.438 73.5117C191.438 73.957 191.585 74.2757 191.879 74.468C192.182 74.6501 192.557 74.7412 193.002 74.7412C193.346 74.7412 193.644 74.6855 193.897 74.5742C194.16 74.4528 194.378 74.2959 194.55 74.1037C194.722 73.9114 194.854 73.6888 194.945 73.4358C195.036 73.1727 195.086 72.8945 195.096 72.601V72.1457H193.912ZM198.353 73.6939C198.586 73.9873 198.839 74.22 199.112 74.3921C199.395 74.5641 199.749 74.6501 200.174 74.6501C200.356 74.6501 200.539 74.6299 200.721 74.5894C200.913 74.5489 201.085 74.4831 201.237 74.3921C201.389 74.301 201.51 74.1897 201.601 74.0581C201.692 73.9165 201.738 73.7495 201.738 73.5573C201.738 73.365 201.692 73.2082 201.601 73.0867C201.52 72.9653 201.409 72.8641 201.267 72.7832C201.126 72.6921 200.964 72.6213 200.781 72.5707C200.599 72.5201 200.412 72.4745 200.22 72.4341C199.886 72.3632 199.567 72.2823 199.264 72.1912C198.96 72.1001 198.692 71.9838 198.459 71.8421C198.237 71.6903 198.054 71.4981 197.913 71.2653C197.781 71.0326 197.715 70.7341 197.715 70.3698C197.715 70.0258 197.791 69.7222 197.943 69.4591C198.095 69.196 198.297 68.9785 198.55 68.8065C198.803 68.6344 199.087 68.5029 199.4 68.4118C199.714 68.3208 200.038 68.2752 200.372 68.2752C200.878 68.2752 201.343 68.3764 201.768 68.5788C202.203 68.7812 202.542 69.11 202.785 69.5654L201.798 70.218C201.647 69.9651 201.444 69.7627 201.191 69.6109C200.948 69.449 200.65 69.3681 200.296 69.3681C200.134 69.3681 199.967 69.3883 199.795 69.4288C199.633 69.4692 199.486 69.53 199.355 69.6109C199.223 69.6919 199.112 69.7981 199.021 69.9297C198.94 70.0511 198.899 70.1927 198.899 70.3546C198.899 70.5064 198.945 70.638 199.036 70.7493C199.137 70.8505 199.269 70.9415 199.431 71.0225C199.603 71.1034 199.795 71.1743 200.007 71.235C200.23 71.2957 200.458 71.3463 200.69 71.3868C201.004 71.4475 201.303 71.5284 201.586 71.6296C201.869 71.7207 202.117 71.8472 202.33 72.0091C202.542 72.171 202.709 72.3734 202.831 72.6162C202.952 72.8591 203.013 73.1576 203.013 73.5117C203.013 73.9165 202.932 74.2605 202.77 74.5438C202.608 74.8272 202.39 75.0599 202.117 75.242C201.854 75.4141 201.551 75.5406 201.206 75.6215C200.873 75.7025 200.529 75.7429 200.174 75.7429C199.567 75.7429 199.041 75.6519 198.596 75.4697C198.161 75.2775 197.766 74.9284 197.412 74.4224L198.353 73.6939ZM208.342 64.086H209.526V69.4895H209.556C209.88 69.105 210.254 68.8065 210.679 68.594C211.114 68.3815 211.59 68.2752 212.106 68.2752C212.663 68.2752 213.168 68.3713 213.624 68.5636C214.089 68.7457 214.484 69.0038 214.808 69.3377C215.132 69.6716 215.385 70.0663 215.567 70.5216C215.749 70.977 215.84 71.4728 215.84 72.0091C215.84 72.5454 215.749 73.0412 215.567 73.4965C215.385 73.9519 215.132 74.3465 214.808 74.6805C214.494 75.0144 214.12 75.2775 213.685 75.4697C213.249 75.6519 212.784 75.7429 212.288 75.7429C211.651 75.7429 211.089 75.6063 210.603 75.3331C210.128 75.0498 209.779 74.7057 209.556 74.301H209.526V75.5608H208.342V64.086ZM209.526 72.0091C209.526 72.3835 209.581 72.7326 209.693 73.0564C209.814 73.3701 209.986 73.6483 210.209 73.8912C210.431 74.1239 210.694 74.3111 210.998 74.4528C211.312 74.5843 211.661 74.6501 212.045 74.6501C212.43 74.6501 212.774 74.5843 213.077 74.4528C213.391 74.3111 213.659 74.1239 213.882 73.8912C214.104 73.6483 214.271 73.3701 214.383 73.0564C214.504 72.7326 214.565 72.3835 214.565 72.0091C214.565 71.6347 214.504 71.2906 214.383 70.977C214.271 70.6531 214.104 70.3749 213.882 70.1421C213.659 69.8993 213.391 69.7121 213.077 69.5806C212.774 69.4389 212.43 69.3681 212.045 69.3681C211.661 69.3681 211.312 69.4389 210.998 69.5806C210.694 69.7121 210.431 69.8993 210.209 70.1421C209.986 70.3749 209.814 70.6531 209.693 70.977C209.581 71.2906 209.526 71.6347 209.526 72.0091ZM223.783 74.2706C223.358 74.8171 222.893 75.2016 222.387 75.4242C221.881 75.6367 221.294 75.7429 220.626 75.7429C220.069 75.7429 219.569 75.6468 219.123 75.4545C218.678 75.2522 218.299 74.984 217.985 74.6501C217.681 74.3162 217.444 73.9215 217.272 73.4662C217.11 73.0108 217.029 72.5251 217.029 72.0091C217.029 71.4627 217.12 70.9618 217.302 70.5064C217.484 70.041 217.737 69.6463 218.061 69.3225C218.385 68.9886 218.769 68.7306 219.214 68.5484C219.66 68.3663 220.145 68.2752 220.672 68.2752C221.167 68.2752 221.623 68.3612 222.038 68.5332C222.452 68.6952 222.807 68.938 223.1 69.2618C223.404 69.5755 223.636 69.9651 223.798 70.4305C223.96 70.8859 224.041 71.407 224.041 71.9939V72.3734H218.304C218.324 72.6769 218.395 72.9704 218.516 73.2537C218.648 73.5269 218.815 73.7698 219.017 73.9823C219.219 74.1846 219.457 74.3465 219.73 74.468C220.004 74.5894 220.302 74.6501 220.626 74.6501C221.142 74.6501 221.577 74.559 221.931 74.3769C222.285 74.1947 222.604 73.9266 222.888 73.5724L223.783 74.2706ZM222.766 71.3716C222.746 70.7645 222.549 70.2788 222.174 69.9145C221.8 69.5502 221.284 69.3681 220.626 69.3681C219.968 69.3681 219.437 69.5502 219.032 69.9145C218.628 70.2788 218.385 70.7645 218.304 71.3716H222.766ZM234.666 70.2332C234.413 69.9297 234.139 69.7121 233.846 69.5806C233.553 69.4389 233.229 69.3681 232.875 69.3681C232.48 69.3681 232.131 69.4389 231.827 69.5806C231.524 69.7121 231.271 69.8993 231.068 70.1421C230.876 70.385 230.729 70.6683 230.628 70.9921C230.527 71.3058 230.476 71.6448 230.476 72.0091C230.476 72.3734 230.532 72.7174 230.643 73.0412C230.765 73.3549 230.927 73.6332 231.129 73.876C231.342 74.1189 231.595 74.3111 231.888 74.4528C232.181 74.5843 232.51 74.6501 232.875 74.6501C233.654 74.6501 234.256 74.3566 234.681 73.7698L235.561 74.6046C235.217 74.9992 234.812 75.2876 234.347 75.4697C233.881 75.6519 233.391 75.7429 232.875 75.7429C232.328 75.7429 231.827 75.6519 231.372 75.4697C230.917 75.2876 230.527 75.0296 230.203 74.6956C229.89 74.3617 229.642 73.9671 229.46 73.5117C229.287 73.0564 229.201 72.5555 229.201 72.0091C229.201 71.4728 229.287 70.977 229.46 70.5216C229.642 70.0663 229.895 69.6716 230.218 69.3377C230.542 69.0038 230.927 68.7457 231.372 68.5636C231.827 68.3713 232.328 68.2752 232.875 68.2752C233.401 68.2752 233.897 68.3663 234.362 68.5484C234.838 68.7306 235.253 69.0139 235.607 69.3984L234.666 70.2332ZM236.691 70.1421C236.691 69.8183 236.681 69.5148 236.66 69.2315C236.64 68.9481 236.63 68.6901 236.63 68.4574H237.753C237.753 68.6496 237.758 68.8419 237.768 69.0341C237.779 69.2264 237.784 69.4237 237.784 69.6261H237.814C237.895 69.4541 238.006 69.2871 238.148 69.1252C238.3 68.9633 238.477 68.8216 238.679 68.7002C238.882 68.5687 239.109 68.4675 239.362 68.3966C239.615 68.3157 239.888 68.2752 240.182 68.2752C240.263 68.2752 240.344 68.2803 240.425 68.2904C240.506 68.3005 240.587 68.3208 240.667 68.3511L240.592 69.5502C240.389 69.4895 240.177 69.4591 239.954 69.4591C239.226 69.4591 238.694 69.6969 238.36 70.1725C238.037 70.638 237.875 71.2805 237.875 72.1001V75.5608H236.691V70.1421ZM247.862 74.2706C247.437 74.8171 246.971 75.2016 246.465 75.4242C245.959 75.6367 245.373 75.7429 244.705 75.7429C244.148 75.7429 243.647 75.6468 243.202 75.4545C242.757 75.2522 242.377 74.984 242.064 74.6501C241.76 74.3162 241.522 73.9215 241.35 73.4662C241.188 73.0108 241.107 72.5251 241.107 72.0091C241.107 71.4627 241.198 70.9618 241.381 70.5064C241.563 70.041 241.816 69.6463 242.14 69.3225C242.463 68.9886 242.848 68.7306 243.293 68.5484C243.738 68.3663 244.224 68.2752 244.75 68.2752C245.246 68.2752 245.701 68.3612 246.116 68.5332C246.531 68.6952 246.885 68.938 247.179 69.2618C247.482 69.5755 247.715 69.9651 247.877 70.4305C248.039 70.8859 248.12 71.407 248.12 71.9939V72.3734H242.382C242.403 72.6769 242.473 72.9704 242.595 73.2537C242.726 73.5269 242.893 73.7698 243.096 73.9823C243.298 74.1846 243.536 74.3465 243.809 74.468C244.082 74.5894 244.381 74.6501 244.705 74.6501C245.221 74.6501 245.656 74.559 246.01 74.3769C246.364 74.1947 246.683 73.9266 246.966 73.5724L247.862 74.2706ZM246.845 71.3716C246.825 70.7645 246.627 70.2788 246.253 69.9145C245.878 69.5502 245.362 69.3681 244.705 69.3681C244.047 69.3681 243.516 69.5502 243.111 69.9145C242.706 70.2788 242.463 70.7645 242.382 71.3716H246.845ZM255.613 74.301H255.582C255.36 74.7057 255.006 75.0498 254.52 75.3331C254.044 75.6063 253.488 75.7429 252.85 75.7429C252.354 75.7429 251.889 75.6519 251.454 75.4697C251.019 75.2775 250.639 75.0144 250.316 74.6805C250.002 74.3465 249.754 73.9519 249.572 73.4965C249.39 73.0412 249.299 72.5454 249.299 72.0091C249.299 71.4728 249.39 70.977 249.572 70.5216C249.754 70.0663 250.007 69.6716 250.331 69.3377C250.655 69.0038 251.044 68.7457 251.499 68.5636C251.965 68.3713 252.476 68.2752 253.032 68.2752C253.549 68.2752 254.019 68.3815 254.444 68.594C254.879 68.8065 255.259 69.105 255.582 69.4895H255.613V64.086H256.797V75.5608H255.613V74.301ZM255.613 72.0091C255.613 71.6347 255.552 71.2906 255.431 70.977C255.319 70.6531 255.152 70.3749 254.93 70.1421C254.707 69.8993 254.439 69.7121 254.125 69.5806C253.822 69.4389 253.478 69.3681 253.093 69.3681C252.709 69.3681 252.36 69.4389 252.046 69.5806C251.742 69.7121 251.479 69.8993 251.257 70.1421C251.034 70.3749 250.862 70.6531 250.741 70.977C250.629 71.2906 250.574 71.6347 250.574 72.0091C250.574 72.3835 250.629 72.7326 250.741 73.0564C250.862 73.3701 251.034 73.6483 251.257 73.8912C251.479 74.1239 251.742 74.3111 252.046 74.4528C252.36 74.5843 252.709 74.6501 253.093 74.6501C253.478 74.6501 253.822 74.5843 254.125 74.4528C254.439 74.3111 254.707 74.1239 254.93 73.8912C255.152 73.6483 255.319 73.3701 255.431 73.0564C255.552 72.7326 255.613 72.3835 255.613 72.0091ZM258.866 68.4574H260.049V75.5608H258.866V68.4574ZM258.592 65.6797C258.592 65.447 258.673 65.2446 258.835 65.0726C259.007 64.9006 259.215 64.8146 259.457 64.8146C259.7 64.8146 259.903 64.9006 260.065 65.0726C260.237 65.2446 260.323 65.447 260.323 65.6797C260.323 65.9327 260.242 66.1401 260.08 66.302C259.918 66.4639 259.71 66.5449 259.457 66.5449C259.204 66.5449 258.997 66.4639 258.835 66.302C258.673 66.1401 258.592 65.9327 258.592 65.6797ZM266.048 69.4591H263.954V73.0108C263.954 73.2436 263.959 73.4611 263.969 73.6635C263.979 73.8558 264.02 74.0278 264.09 74.1796C264.161 74.3212 264.267 74.4376 264.409 74.5287C264.551 74.6096 264.753 74.6501 265.016 74.6501C265.188 74.6501 265.365 74.6299 265.548 74.5894C265.73 74.5489 265.902 74.4882 266.064 74.4072L266.109 75.4849C265.907 75.576 265.679 75.6417 265.426 75.6822C265.183 75.7227 264.951 75.7429 264.728 75.7429C264.303 75.7429 263.964 75.6873 263.711 75.576C263.458 75.4647 263.261 75.3078 263.119 75.1054C262.977 74.9031 262.881 74.6552 262.831 74.3617C262.79 74.0581 262.77 73.7242 262.77 73.3599V69.4591H261.222V68.4574H262.77V66.4386H263.954V68.4574H266.048V69.4591ZM273.601 74.2706C273.176 74.8171 272.71 75.2016 272.204 75.4242C271.698 75.6367 271.111 75.7429 270.443 75.7429C269.887 75.7429 269.386 75.6468 268.941 75.4545C268.496 75.2522 268.116 74.984 267.802 74.6501C267.499 74.3162 267.261 73.9215 267.089 73.4662C266.927 73.0108 266.846 72.5251 266.846 72.0091C266.846 71.4627 266.937 70.9618 267.119 70.5064C267.302 70.041 267.555 69.6463 267.878 69.3225C268.202 68.9886 268.587 68.7306 269.032 68.5484C269.477 68.3663 269.963 68.2752 270.489 68.2752C270.985 68.2752 271.44 68.3612 271.855 68.5332C272.27 68.6952 272.624 68.938 272.918 69.2618C273.221 69.5755 273.454 69.9651 273.616 70.4305C273.778 70.8859 273.859 71.407 273.859 71.9939V72.3734H268.121C268.141 72.6769 268.212 72.9704 268.334 73.2537C268.465 73.5269 268.632 73.7698 268.835 73.9823C269.037 74.1846 269.275 74.3465 269.548 74.468C269.821 74.5894 270.12 74.6501 270.443 74.6501C270.96 74.6501 271.395 74.559 271.749 74.3769C272.103 74.1947 272.422 73.9266 272.705 73.5724L273.601 74.2706ZM272.584 71.3716C272.563 70.7645 272.366 70.2788 271.992 69.9145C271.617 69.5502 271.101 69.3681 270.443 69.3681C269.786 69.3681 269.254 69.5502 268.85 69.9145C268.445 70.2788 268.202 70.7645 268.121 71.3716H272.584ZM281.352 74.301H281.321C281.099 74.7057 280.744 75.0498 280.259 75.3331C279.783 75.6063 279.227 75.7429 278.589 75.7429C278.093 75.7429 277.628 75.6519 277.193 75.4697C276.758 75.2775 276.378 75.0144 276.054 74.6805C275.741 74.3465 275.493 73.9519 275.311 73.4965C275.128 73.0412 275.037 72.5454 275.037 72.0091C275.037 71.4728 275.128 70.977 275.311 70.5216C275.493 70.0663 275.746 69.6716 276.07 69.3377C276.393 69.0038 276.783 68.7457 277.238 68.5636C277.704 68.3713 278.215 68.2752 278.771 68.2752C279.287 68.2752 279.758 68.3815 280.183 68.594C280.618 68.8065 280.997 69.105 281.321 69.4895H281.352V64.086H282.535V75.5608H281.352V74.301ZM281.352 72.0091C281.352 71.6347 281.291 71.2906 281.169 70.977C281.058 70.6531 280.891 70.3749 280.669 70.1421C280.446 69.8993 280.178 69.7121 279.864 69.5806C279.561 69.4389 279.216 69.3681 278.832 69.3681C278.447 69.3681 278.098 69.4389 277.785 69.5806C277.481 69.7121 277.218 69.8993 276.995 70.1421C276.773 70.3749 276.601 70.6531 276.479 70.977C276.368 71.2906 276.312 71.6347 276.312 72.0091C276.312 72.3835 276.368 72.7326 276.479 73.0564C276.601 73.3701 276.773 73.6483 276.995 73.8912C277.218 74.1239 277.481 74.3111 277.785 74.4528C278.098 74.5843 278.447 74.6501 278.832 74.6501C279.216 74.6501 279.561 74.5843 279.864 74.4528C280.178 74.3111 280.446 74.1239 280.669 73.8912C280.891 73.6483 281.058 73.3701 281.169 73.0564C281.291 72.7326 281.352 72.3835 281.352 72.0091ZM285.47 73.8305C285.723 73.8305 285.935 73.9215 286.107 74.1037C286.289 74.2757 286.381 74.4882 286.381 74.7412C286.381 74.9941 286.284 75.2117 286.092 75.3938C285.91 75.5659 285.703 75.6519 285.47 75.6519C285.237 75.6519 285.025 75.5659 284.832 75.3938C284.65 75.2117 284.559 74.9941 284.559 74.7412C284.559 74.4882 284.645 74.2757 284.817 74.1037C284.999 73.9215 285.217 73.8305 285.47 73.8305ZM289.451 73.8305C289.704 73.8305 289.917 73.9215 290.089 74.1037C290.271 74.2757 290.362 74.4882 290.362 74.7412C290.362 74.9941 290.266 75.2117 290.074 75.3938C289.892 75.5659 289.684 75.6519 289.451 75.6519C289.219 75.6519 289.006 75.5659 288.814 75.3938C288.632 75.2117 288.541 74.9941 288.541 74.7412C288.541 74.4882 288.627 74.2757 288.799 74.1037C288.981 73.9215 289.198 73.8305 289.451 73.8305ZM293.433 73.8305C293.686 73.8305 293.898 73.9215 294.07 74.1037C294.253 74.2757 294.344 74.4882 294.344 74.7412C294.344 74.9941 294.248 75.2117 294.055 75.3938C293.873 75.5659 293.666 75.6519 293.433 75.6519C293.2 75.6519 292.988 75.5659 292.795 75.3938C292.613 75.2117 292.522 74.9941 292.522 74.7412C292.522 74.4882 292.608 74.2757 292.78 74.1037C292.962 73.9215 293.18 73.8305 293.433 73.8305Z" fill="black"/>
    <path d="M20.7184 45.2253C20.3238 44.8003 19.9392 44.517 19.5648 44.3753C19.2006 44.2336 18.8312 44.1628 18.4568 44.1628C17.9003 44.1628 17.3944 44.264 16.939 44.4664C16.4938 44.6586 16.1093 44.9318 15.7855 45.286C15.4617 45.63 15.2087 46.0348 15.0265 46.5003C14.8545 46.9657 14.7685 47.4666 14.7685 48.0029C14.7685 48.5797 14.8545 49.1109 15.0265 49.5966C15.2087 50.0823 15.4617 50.5023 15.7855 50.8564C16.1093 51.2106 16.4938 51.4888 16.939 51.6912C17.3944 51.8936 17.9003 51.9948 18.4568 51.9948C18.8919 51.9948 19.3119 51.8936 19.7166 51.6912C20.1315 51.4787 20.516 51.1448 20.8702 50.6895L22.4487 51.8127C21.963 52.4805 21.3711 52.9662 20.6729 53.2698C19.9747 53.5733 19.2309 53.7251 18.4417 53.7251C17.6119 53.7251 16.8479 53.5936 16.1497 53.3305C15.4617 53.0573 14.8646 52.6778 14.3587 52.1921C13.8629 51.6963 13.4733 51.1043 13.19 50.4162C12.9066 49.7282 12.765 48.9642 12.765 48.1243C12.765 47.2642 12.9066 46.4851 13.19 45.7869C13.4733 45.0786 13.8629 44.4765 14.3587 43.9807C14.8646 43.4848 15.4617 43.1054 16.1497 42.8423C16.8479 42.5691 17.6119 42.4325 18.4417 42.4325C19.1702 42.4325 19.8431 42.564 20.4604 42.8271C21.0877 43.0801 21.6696 43.5152 22.2059 44.1324L20.7184 45.2253ZM22.9583 49.8091C22.9583 49.2323 23.0594 48.7112 23.2618 48.2458C23.4743 47.7702 23.7576 47.3654 24.1118 47.0315C24.466 46.6976 24.8859 46.4395 25.3716 46.2574C25.8573 46.0753 26.3734 45.9842 26.9198 45.9842C27.4662 45.9842 27.9823 46.0753 28.468 46.2574C28.9537 46.4395 29.3736 46.6976 29.7278 47.0315C30.0819 47.3654 30.3602 47.7702 30.5626 48.2458C30.7751 48.7112 30.8813 49.2323 30.8813 49.8091C30.8813 50.3859 30.7751 50.9121 30.5626 51.3877C30.3602 51.8531 30.0819 52.2528 29.7278 52.5867C29.3736 52.9207 28.9537 53.1787 28.468 53.3608C27.9823 53.543 27.4662 53.634 26.9198 53.634C26.3734 53.634 25.8573 53.543 25.3716 53.3608C24.8859 53.1787 24.466 52.9207 24.1118 52.5867C23.7576 52.2528 23.4743 51.8531 23.2618 51.3877C23.0594 50.9121 22.9583 50.3859 22.9583 49.8091ZM24.7796 49.8091C24.7796 50.0924 24.8252 50.3657 24.9163 50.6287C25.0174 50.8918 25.1591 51.1246 25.3412 51.3269C25.5335 51.5293 25.7612 51.6912 26.0243 51.8127C26.2874 51.9341 26.5859 51.9948 26.9198 51.9948C27.2537 51.9948 27.5522 51.9341 27.8153 51.8127C28.0784 51.6912 28.301 51.5293 28.4831 51.3269C28.6754 51.1246 28.8171 50.8918 28.9081 50.6287C29.0093 50.3657 29.0599 50.0924 29.0599 49.8091C29.0599 49.5258 29.0093 49.2526 28.9081 48.9895C28.8171 48.7264 28.6754 48.4937 28.4831 48.2913C28.301 48.0889 28.0784 47.927 27.8153 47.8056C27.5522 47.6842 27.2537 47.6234 26.9198 47.6234C26.5859 47.6234 26.2874 47.6842 26.0243 47.8056C25.7612 47.927 25.5335 48.0889 25.3412 48.2913C25.1591 48.4937 25.0174 48.7264 24.9163 48.9895C24.8252 49.2526 24.7796 49.5258 24.7796 49.8091ZM32.3438 46.1663H34.0741V47.3351H34.1044C34.2765 46.9708 34.5396 46.6571 34.8937 46.394C35.2479 46.1208 35.7285 45.9842 36.3357 45.9842C36.8214 45.9842 37.2312 46.0651 37.5651 46.227C37.9091 46.3889 38.1874 46.6014 38.3999 46.8645C38.6124 47.1276 38.7642 47.4312 38.8552 47.7752C38.9463 48.1193 38.9919 48.4785 38.9919 48.8529V53.4519H37.1705V49.7636C37.1705 49.5612 37.1603 49.3386 37.1401 49.0957C37.1199 48.8428 37.0642 48.61 36.9731 48.3975C36.8922 48.1749 36.7606 47.9928 36.5785 47.8511C36.3964 47.6993 36.1485 47.6234 35.8348 47.6234C35.5312 47.6234 35.2732 47.674 35.0607 47.7752C34.8583 47.8764 34.6863 48.013 34.5446 48.185C34.4131 48.3571 34.3169 48.5544 34.2562 48.777C34.1955 48.9996 34.1652 49.2323 34.1652 49.4752V53.4519H32.3438V46.1663ZM48.3146 46.1663V52.7992C48.3146 53.457 48.2337 54.0489 48.0718 54.5751C47.9099 55.1114 47.6569 55.5617 47.3129 55.926C46.9789 56.3004 46.554 56.5887 46.0379 56.7911C45.5218 56.9935 44.9096 57.0947 44.2013 57.0947C43.5234 57.0947 42.8808 57.0087 42.2737 56.8367C41.6665 56.6646 41.105 56.351 40.5889 55.8956L41.6817 54.4081C42.046 54.7421 42.4255 55.0001 42.8201 55.1822C43.2147 55.3644 43.6701 55.4554 44.1861 55.4554C44.6213 55.4554 44.9855 55.3947 45.279 55.2733C45.5825 55.1519 45.8203 54.9849 45.9924 54.7724C46.1745 54.5599 46.301 54.3019 46.3718 53.9983C46.4528 53.7049 46.4932 53.376 46.4932 53.0117V52.4805H46.4629C46.1998 52.8347 45.8507 53.1028 45.4156 53.2849C44.9805 53.457 44.5352 53.543 44.0799 53.543C43.5335 53.543 43.0377 53.4468 42.5924 53.2546C42.1472 53.0522 41.7627 52.7841 41.4389 52.4501C41.1252 52.1162 40.8823 51.7216 40.7103 51.2662C40.5383 50.8109 40.4523 50.3252 40.4523 49.8091C40.4523 49.2728 40.5332 48.7719 40.6951 48.3065C40.857 47.841 41.0948 47.4362 41.4085 47.0922C41.7222 46.7482 42.0966 46.48 42.5317 46.2878C42.9769 46.0854 43.4829 45.9842 44.0495 45.9842C44.5656 45.9842 45.0462 46.0854 45.4915 46.2878C45.9367 46.4901 46.2909 46.8139 46.554 47.2592H46.5843V46.1663H48.3146ZM44.429 47.6234C44.1052 47.6234 43.8117 47.6791 43.5487 47.7904C43.2856 47.8916 43.0579 48.0383 42.8656 48.2306C42.6835 48.4127 42.5368 48.6404 42.4255 48.9136C42.3243 49.1767 42.2737 49.4701 42.2737 49.7939C42.2737 50.0874 42.3243 50.3606 42.4255 50.6136C42.5368 50.8665 42.6886 51.0892 42.8808 51.2814C43.0731 51.4737 43.3007 51.6255 43.5638 51.7368C43.8269 51.8481 44.1102 51.9037 44.4138 51.9037C44.7477 51.9037 45.0462 51.8481 45.3093 51.7368C45.5825 51.6255 45.8102 51.4787 45.9924 51.2966C46.1846 51.1043 46.3313 50.8767 46.4325 50.6136C46.5337 50.3505 46.5843 50.0671 46.5843 49.7636C46.5843 49.1261 46.392 48.61 46.0075 48.2154C45.623 47.8208 45.0968 47.6234 44.429 47.6234ZM50.1342 46.1663H51.9556V47.3199H51.986C52.1884 46.8949 52.4768 46.566 52.8512 46.3333C53.2256 46.1006 53.6556 45.9842 54.1413 45.9842C54.2526 45.9842 54.3589 45.9943 54.4601 46.0145C54.5714 46.0348 54.6827 46.0601 54.794 46.0904V47.8511C54.6422 47.8106 54.4904 47.7803 54.3386 47.7601C54.197 47.7297 54.0553 47.7145 53.9136 47.7145C53.4886 47.7145 53.1446 47.7955 52.8815 47.9574C52.6285 48.1092 52.4312 48.2862 52.2896 48.4886C52.158 48.691 52.0669 48.8934 52.0164 49.0957C51.9759 49.2981 51.9556 49.4499 51.9556 49.5511V53.4519H50.1342V46.1663ZM60.3442 52.4501H60.2987C60.0356 52.865 59.7017 53.1686 59.2969 53.3608C58.8922 53.543 58.447 53.634 57.9613 53.634C57.6273 53.634 57.2985 53.5885 56.9747 53.4974C56.661 53.4064 56.3777 53.2698 56.1247 53.0876C55.8818 52.9055 55.6845 52.6778 55.5327 52.4046C55.3809 52.1314 55.3051 51.8127 55.3051 51.4484C55.3051 51.0537 55.3759 50.7198 55.5176 50.4466C55.6592 50.1633 55.8464 49.9305 56.0791 49.7484C56.322 49.5561 56.6003 49.4044 56.914 49.2931C57.2276 49.1817 57.5514 49.1008 57.8854 49.0502C58.2294 48.9895 58.5734 48.9541 58.9175 48.944C59.2615 48.9237 59.5853 48.9136 59.8889 48.9136H60.3442V48.7163C60.3442 48.2609 60.1874 47.922 59.8737 47.6993C59.56 47.4666 59.1603 47.3502 58.6746 47.3502C58.2901 47.3502 57.9309 47.4211 57.597 47.5627C57.2631 47.6943 56.9747 47.8764 56.7318 48.1092L55.7756 47.1529C56.1803 46.738 56.6509 46.4395 57.1872 46.2574C57.7336 46.0753 58.2952 45.9842 58.8719 45.9842C59.388 45.9842 59.8231 46.0449 60.1773 46.1663C60.5314 46.2776 60.8249 46.4244 61.0576 46.6065C61.2904 46.7886 61.4674 47.0011 61.5889 47.244C61.7204 47.4767 61.8115 47.7145 61.8621 47.9574C61.9228 48.2002 61.9582 48.438 61.9683 48.6707C61.9784 48.8934 61.9835 49.0907 61.9835 49.2627V53.4519H60.3442V52.4501ZM60.238 50.1886H59.8585C59.6056 50.1886 59.3222 50.1987 59.0086 50.2189C58.6949 50.2392 58.3964 50.2898 58.113 50.3707C57.8398 50.4415 57.6071 50.5529 57.4148 50.7046C57.2226 50.8463 57.1264 51.0487 57.1264 51.3118C57.1264 51.4838 57.1619 51.6305 57.2327 51.7519C57.3136 51.8632 57.4148 51.9594 57.5363 52.0403C57.6577 52.1213 57.7943 52.182 57.9461 52.2225C58.0979 52.2528 58.2496 52.268 58.4014 52.268C59.0288 52.268 59.4892 52.1213 59.7826 51.8278C60.0862 51.5243 60.238 51.1144 60.238 50.5984V50.1886ZM62.8503 47.7145V46.1663H64.353V44.0566H66.1744V46.1663H68.1779V47.7145H66.1744V50.902C66.1744 51.2662 66.2401 51.5546 66.3717 51.7671C66.5133 51.9796 66.7866 52.0859 67.1913 52.0859C67.3532 52.0859 67.5303 52.0707 67.7225 52.0403C67.9148 51.9998 68.0666 51.9391 68.1779 51.8582V53.3912C67.9856 53.4823 67.7478 53.543 67.4645 53.5733C67.1913 53.6138 66.9485 53.634 66.736 53.634C66.2503 53.634 65.8506 53.5784 65.5369 53.4671C65.2333 53.3659 64.9905 53.2091 64.8083 52.9966C64.6363 52.7739 64.5149 52.5007 64.444 52.1769C64.3833 51.8531 64.353 51.4787 64.353 51.0537V47.7145H62.8503ZM73.2425 48.185C72.8883 47.6892 72.4127 47.4413 71.8157 47.4413C71.5728 47.4413 71.3351 47.502 71.1023 47.6234C70.8696 47.7449 70.7532 47.9422 70.7532 48.2154C70.7532 48.438 70.8493 48.5999 71.0416 48.7011C71.2339 48.8023 71.4767 48.8883 71.7702 48.9591C72.0636 49.03 72.3773 49.1059 72.7112 49.1868C73.0553 49.2576 73.374 49.374 73.6674 49.5359C73.9609 49.6877 74.2037 49.9002 74.396 50.1734C74.5883 50.4466 74.6844 50.821 74.6844 51.2966C74.6844 51.7317 74.5883 52.101 74.396 52.4046C74.2139 52.698 73.971 52.9358 73.6674 53.118C73.374 53.3001 73.0401 53.4317 72.6657 53.5126C72.2913 53.5936 71.9169 53.634 71.5425 53.634C70.9758 53.634 70.4547 53.5531 69.9791 53.3912C69.5035 53.2293 69.0785 52.9358 68.7042 52.5109L69.9184 51.3725C70.1511 51.6356 70.3991 51.8531 70.6622 52.0251C70.9354 52.187 71.2642 52.268 71.6487 52.268C71.7803 52.268 71.9169 52.2528 72.0586 52.2225C72.2002 52.1921 72.3318 52.1415 72.4532 52.0707C72.5746 51.9998 72.6707 51.9138 72.7416 51.8127C72.8225 51.7013 72.863 51.5749 72.863 51.4332C72.863 51.1802 72.7669 50.993 72.5746 50.8716C72.3824 50.7502 72.1395 50.654 71.8461 50.5832C71.5526 50.5023 71.2339 50.4314 70.8898 50.3707C70.5559 50.2999 70.2422 50.1936 69.9488 50.052C69.6553 49.9002 69.4125 49.6928 69.2202 49.4297C69.028 49.1666 68.9318 48.8023 68.9318 48.3368C68.9318 47.9321 69.0128 47.583 69.1747 47.2895C69.3467 46.986 69.5693 46.738 69.8425 46.5458C70.1157 46.3535 70.4294 46.2119 70.7836 46.1208C71.1377 46.0297 71.497 45.9842 71.8612 45.9842C72.3469 45.9842 72.8276 46.0702 73.3032 46.2422C73.7788 46.4041 74.1633 46.6875 74.4567 47.0922L73.2425 48.185ZM80.2736 42.7057H83.886C84.402 42.7057 84.8979 42.7563 85.3735 42.8575C85.8592 42.9587 86.2842 43.1307 86.6484 43.3735C87.0127 43.6063 87.3011 43.925 87.5136 44.3298C87.7362 44.7244 87.8475 45.2202 87.8475 45.8172C87.8475 46.4952 87.7311 47.0416 87.4984 47.4565C87.2657 47.8714 86.952 48.1952 86.5574 48.4279C86.1627 48.6505 85.7023 48.8023 85.1761 48.8832C84.6601 48.9642 84.1187 49.0047 83.5521 49.0047H82.186V53.4519H80.2736V42.7057ZM83.3396 47.3654C83.6128 47.3654 83.8961 47.3553 84.1895 47.3351C84.483 47.3148 84.7511 47.2541 84.994 47.1529C85.247 47.0517 85.4493 46.8999 85.6011 46.6976C85.763 46.4952 85.844 46.2119 85.844 45.8476C85.844 45.5137 85.7731 45.2506 85.6315 45.0583C85.4898 44.8559 85.3077 44.7042 85.0851 44.603C84.8625 44.4917 84.6145 44.4208 84.3413 44.3905C84.0681 44.3601 83.805 44.3449 83.5521 44.3449H82.186V47.3654H83.3396ZM93.6961 52.4501H93.6506C93.3875 52.865 93.0536 53.1686 92.6488 53.3608C92.2441 53.543 91.7988 53.634 91.3131 53.634C90.9792 53.634 90.6504 53.5885 90.3266 53.4974C90.0129 53.4064 89.7295 53.2698 89.4766 53.0876C89.2337 52.9055 89.0364 52.6778 88.8846 52.4046C88.7328 52.1314 88.6569 51.8127 88.6569 51.4484C88.6569 51.0537 88.7278 50.7198 88.8694 50.4466C89.0111 50.1633 89.1983 49.9305 89.431 49.7484C89.6739 49.5561 89.9522 49.4044 90.2658 49.2931C90.5795 49.1817 90.9033 49.1008 91.2373 49.0502C91.5813 48.9895 91.9253 48.9541 92.2694 48.944C92.6134 48.9237 92.9372 48.9136 93.2408 48.9136H93.6961V48.7163C93.6961 48.2609 93.5393 47.922 93.2256 47.6993C92.9119 47.4666 92.5122 47.3502 92.0265 47.3502C91.642 47.3502 91.2828 47.4211 90.9489 47.5627C90.6149 47.6943 90.3266 47.8764 90.0837 48.1092L89.1275 47.1529C89.5322 46.738 90.0028 46.4395 90.5391 46.2574C91.0855 46.0753 91.6471 45.9842 92.2238 45.9842C92.7399 45.9842 93.175 46.0449 93.5292 46.1663C93.8833 46.2776 94.1768 46.4244 94.4095 46.6065C94.6422 46.7886 94.8193 47.0011 94.9408 47.244C95.0723 47.4767 95.1634 47.7145 95.214 47.9574C95.2747 48.2002 95.3101 48.438 95.3202 48.6707C95.3303 48.8934 95.3354 49.0907 95.3354 49.2627V53.4519H93.6961V52.4501ZM93.5899 50.1886H93.2104C92.9575 50.1886 92.6741 50.1987 92.3604 50.2189C92.0468 50.2392 91.7483 50.2898 91.4649 50.3707C91.1917 50.4415 90.959 50.5529 90.7667 50.7046C90.5745 50.8463 90.4783 51.0487 90.4783 51.3118C90.4783 51.4838 90.5138 51.6305 90.5846 51.7519C90.6655 51.8632 90.7667 51.9594 90.8882 52.0403C91.0096 52.1213 91.1462 52.182 91.298 52.2225C91.4497 52.2528 91.6015 52.268 91.7533 52.268C92.3807 52.268 92.8411 52.1213 93.1345 51.8278C93.4381 51.5243 93.5899 51.1144 93.5899 50.5984V50.1886ZM102.82 52.3591H102.79C102.526 52.8043 102.172 53.1281 101.727 53.3305C101.282 53.5329 100.801 53.634 100.285 53.634C99.7185 53.634 99.2126 53.5379 98.7673 53.3457C98.3322 53.1433 97.9578 52.8701 97.6441 52.526C97.3305 52.182 97.0927 51.7772 96.9308 51.3118C96.7689 50.8463 96.6879 50.3454 96.6879 49.8091C96.6879 49.2728 96.7739 48.7719 96.9459 48.3065C97.118 47.841 97.3558 47.4362 97.6593 47.0922C97.973 46.7482 98.3474 46.48 98.7825 46.2878C99.2176 46.0854 99.6932 45.9842 100.209 45.9842C100.553 45.9842 100.857 46.0196 101.12 46.0904C101.383 46.1613 101.616 46.2523 101.818 46.3637C102.021 46.475 102.193 46.5964 102.334 46.7279C102.476 46.8494 102.592 46.9708 102.683 47.0922H102.729V41.9771H104.55V53.4519H102.82V52.3591ZM98.5093 49.8091C98.5093 50.0924 98.5548 50.3657 98.6459 50.6287C98.7471 50.8918 98.8888 51.1246 99.0709 51.3269C99.2632 51.5293 99.4908 51.6912 99.7539 51.8127C100.017 51.9341 100.316 51.9948 100.649 51.9948C100.983 51.9948 101.282 51.9341 101.545 51.8127C101.808 51.6912 102.031 51.5293 102.213 51.3269C102.405 51.1246 102.547 50.8918 102.638 50.6287C102.739 50.3657 102.79 50.0924 102.79 49.8091C102.79 49.5258 102.739 49.2526 102.638 48.9895C102.547 48.7264 102.405 48.4937 102.213 48.2913C102.031 48.0889 101.808 47.927 101.545 47.8056C101.282 47.6842 100.983 47.6234 100.649 47.6234C100.316 47.6234 100.017 47.6842 99.7539 47.8056C99.4908 47.927 99.2632 48.0889 99.0709 48.2913C98.8888 48.4937 98.7471 48.7264 98.6459 48.9895C98.5548 49.2526 98.5093 49.5258 98.5093 49.8091ZM106.415 46.1663H108.236V53.4519H106.415V46.1663ZM106.157 43.6923C106.157 43.3988 106.263 43.1459 106.476 42.9334C106.698 42.7107 106.977 42.5994 107.311 42.5994C107.644 42.5994 107.923 42.7057 108.145 42.9182C108.378 43.1206 108.494 43.3786 108.494 43.6923C108.494 44.006 108.378 44.269 108.145 44.4815C107.923 44.6839 107.644 44.7851 107.311 44.7851C106.977 44.7851 106.698 44.6789 106.476 44.4664C106.263 44.2438 106.157 43.9857 106.157 43.6923ZM110.692 51.3573H112.544L111.253 55.3644H109.629L110.692 51.3573ZM118.748 42.7057H121.283L126.489 50.6895H126.52V42.7057H128.432V53.4519H126.004L120.691 45.2101H120.661V53.4519H118.748V42.7057ZM130.282 51.5243L134.456 47.4868C134.578 47.3654 134.704 47.2389 134.836 47.1074C134.967 46.9657 135.084 46.819 135.185 46.6672C135.296 46.5154 135.387 46.3586 135.458 46.1967C135.529 46.0247 135.564 45.8476 135.564 45.6654C135.564 45.4428 135.519 45.2455 135.428 45.0735C135.347 44.9015 135.235 44.7548 135.094 44.6333C134.952 44.5119 134.785 44.4208 134.593 44.3601C134.411 44.2893 134.213 44.2539 134.001 44.2539C133.546 44.2539 133.171 44.3854 132.878 44.6485C132.584 44.9116 132.407 45.2658 132.347 45.711L130.434 45.5592C130.475 45.0634 130.591 44.6283 130.783 44.2539C130.986 43.8694 131.244 43.5506 131.557 43.2976C131.871 43.0447 132.235 42.8524 132.65 42.7209C133.065 42.5893 133.515 42.5235 134.001 42.5235C134.487 42.5235 134.937 42.5893 135.352 42.7209C135.777 42.8423 136.146 43.0295 136.46 43.2825C136.774 43.5253 137.021 43.839 137.204 44.2235C137.386 44.608 137.477 45.0583 137.477 45.5744C137.477 46.2523 137.32 46.8392 137.006 47.3351C136.703 47.8208 136.308 48.2862 135.822 48.7315L132.498 51.8127H137.477V53.4519H130.282V51.5243ZM138.734 48.0788C138.734 47.2288 138.799 46.5053 138.931 45.9083C139.072 45.3012 139.255 44.7952 139.477 44.3905C139.7 43.9756 139.948 43.6467 140.221 43.4039C140.504 43.1509 140.788 42.9637 141.071 42.8423C141.364 42.7107 141.643 42.6247 141.906 42.5843C142.179 42.5438 142.417 42.5235 142.619 42.5235C142.822 42.5235 143.054 42.5438 143.317 42.5843C143.591 42.6247 143.869 42.7107 144.152 42.8423C144.446 42.9637 144.729 43.1509 145.002 43.4039C145.285 43.6467 145.538 43.9756 145.761 44.3905C145.984 44.7952 146.161 45.3012 146.292 45.9083C146.434 46.5053 146.505 47.2288 146.505 48.0788C146.505 48.9288 146.434 49.6573 146.292 50.2645C146.161 50.8615 145.984 51.3674 145.761 51.7823C145.538 52.187 145.285 52.5159 145.002 52.7689C144.729 53.0117 144.446 53.1989 144.152 53.3305C143.869 53.4519 143.591 53.5329 143.317 53.5733C143.054 53.6138 142.822 53.634 142.619 53.634C142.417 53.634 142.179 53.6138 141.906 53.5733C141.643 53.5329 141.364 53.4519 141.071 53.3305C140.788 53.1989 140.504 53.0117 140.221 52.7689C139.948 52.5159 139.7 52.187 139.477 51.7823C139.255 51.3674 139.072 50.8615 138.931 50.2645C138.799 49.6573 138.734 48.9288 138.734 48.0788ZM140.555 48.0788C140.555 48.4127 140.575 48.8023 140.616 49.2475C140.666 49.6826 140.762 50.0975 140.904 50.4921C141.046 50.8868 141.253 51.2207 141.526 51.4939C141.8 51.7671 142.164 51.9037 142.619 51.9037C143.074 51.9037 143.439 51.7671 143.712 51.4939C143.985 51.2207 144.193 50.8868 144.334 50.4921C144.476 50.0975 144.567 49.6826 144.607 49.2475C144.658 48.8023 144.683 48.4127 144.683 48.0788C144.683 47.7449 144.658 47.3604 144.607 46.9252C144.567 46.48 144.476 46.0601 144.334 45.6654C144.193 45.2708 143.985 44.9369 143.712 44.6637C143.439 44.3905 143.074 44.2539 142.619 44.2539C142.164 44.2539 141.8 44.3905 141.526 44.6637C141.253 44.9369 141.046 45.2708 140.904 45.6654C140.762 46.0601 140.666 46.48 140.616 46.9252C140.575 47.3604 140.555 47.7449 140.555 48.0788ZM148.505 51.3573H150.357L149.067 55.3644H147.443L148.505 51.3573ZM157.747 42.7057L155.167 46.6824L155.197 46.7128C155.309 46.652 155.455 46.6065 155.637 46.5761C155.83 46.5458 156.017 46.5306 156.199 46.5306C156.675 46.5306 157.11 46.6217 157.504 46.8038C157.899 46.986 158.238 47.2339 158.521 47.5476C158.815 47.8612 159.037 48.2255 159.189 48.6404C159.351 49.0553 159.432 49.4954 159.432 49.9609C159.432 50.5174 159.336 51.0234 159.144 51.4787C158.951 51.9341 158.683 52.3237 158.339 52.6475C158.005 52.9611 157.601 53.204 157.125 53.376C156.659 53.548 156.154 53.634 155.607 53.634C155.04 53.634 154.524 53.5531 154.059 53.3912C153.593 53.2192 153.189 52.9763 152.845 52.6626C152.511 52.3489 152.248 51.9644 152.055 51.5091C151.873 51.0537 151.782 50.5427 151.782 49.9761C151.782 49.4094 151.873 48.8984 152.055 48.4431C152.248 47.9776 152.491 47.5071 152.784 47.0315L155.531 42.7057H157.747ZM153.695 49.9457C153.695 50.2189 153.745 50.477 153.846 50.7198C153.948 50.9525 154.084 51.16 154.256 51.3421C154.438 51.5141 154.646 51.6507 154.879 51.7519C155.121 51.8531 155.379 51.9037 155.653 51.9037C155.926 51.9037 156.179 51.8531 156.412 51.7519C156.654 51.6507 156.862 51.5141 157.034 51.3421C157.216 51.16 157.358 50.9525 157.459 50.7198C157.56 50.477 157.611 50.2189 157.611 49.9457C157.611 49.6725 157.56 49.4195 157.459 49.1868C157.358 48.944 157.216 48.7365 157.034 48.5645C156.862 48.3824 156.654 48.2407 156.412 48.1395C156.179 48.0383 155.926 47.9877 155.653 47.9877C155.379 47.9877 155.121 48.0383 154.879 48.1395C154.646 48.2407 154.438 48.3824 154.256 48.5645C154.084 48.7365 153.948 48.944 153.846 49.1868C153.745 49.4195 153.695 49.6725 153.695 49.9457ZM163.224 47.0315H163.694C163.957 47.0315 164.21 47.0163 164.453 46.986C164.706 46.9556 164.929 46.8898 165.121 46.7886C165.323 46.6875 165.485 46.5407 165.607 46.3485C165.728 46.1562 165.789 45.8982 165.789 45.5744C165.789 45.1595 165.647 44.8205 165.364 44.5574C165.08 44.2943 164.711 44.1628 164.256 44.1628C163.891 44.1628 163.563 44.269 163.269 44.4815C162.986 44.6839 162.778 44.9723 162.647 45.3467L160.719 44.8306C160.841 44.436 161.013 44.092 161.235 43.7985C161.458 43.5051 161.721 43.2673 162.024 43.0851C162.328 42.8929 162.662 42.7512 163.026 42.6602C163.39 42.5691 163.77 42.5235 164.165 42.5235C164.63 42.5235 165.07 42.5843 165.485 42.7057C165.9 42.8271 166.264 43.0093 166.578 43.2521C166.892 43.4848 167.14 43.7833 167.322 44.1476C167.514 44.5018 167.61 44.9167 167.61 45.3922C167.61 45.969 167.448 46.4851 167.124 46.9404C166.801 47.3857 166.35 47.6791 165.773 47.8208V47.8511C166.462 47.9523 166.983 48.2458 167.337 48.7315C167.691 49.2172 167.868 49.7939 167.868 50.4618C167.868 50.9778 167.767 51.4332 167.565 51.8278C167.372 52.2225 167.109 52.5564 166.775 52.8296C166.441 53.0927 166.052 53.2951 165.607 53.4367C165.171 53.5683 164.716 53.634 164.24 53.634C163.795 53.634 163.375 53.5834 162.981 53.4823C162.586 53.3912 162.227 53.2445 161.903 53.0421C161.589 52.8397 161.316 52.5817 161.083 52.268C160.851 51.9442 160.674 51.5597 160.552 51.1144L162.495 50.5984C162.606 51.0436 162.804 51.3877 163.087 51.6305C163.37 51.8734 163.755 51.9948 164.24 51.9948C164.483 51.9948 164.711 51.9543 164.924 51.8734C165.146 51.7924 165.338 51.6811 165.5 51.5394C165.672 51.3877 165.804 51.2106 165.895 51.0082C165.996 50.7957 166.047 50.563 166.047 50.31C166.047 49.966 165.971 49.6877 165.819 49.4752C165.677 49.2526 165.49 49.0856 165.257 48.9743C165.035 48.8529 164.782 48.7719 164.499 48.7315C164.215 48.691 163.937 48.6707 163.664 48.6707H163.224V47.0315ZM169.231 42.7057H176.532V44.3753L172.236 53.4519H170.096L174.483 44.436H169.231V42.7057ZM178.365 52.3894C178.365 52.0656 178.482 51.7874 178.714 51.5546C178.957 51.3219 179.246 51.2055 179.58 51.2055C179.903 51.2055 180.187 51.3168 180.43 51.5394C180.672 51.7621 180.794 52.0353 180.794 52.3591C180.794 52.6829 180.672 52.9611 180.43 53.1939C180.197 53.4266 179.913 53.543 179.58 53.543C179.418 53.543 179.261 53.5126 179.109 53.4519C178.967 53.3912 178.841 53.3102 178.73 53.2091C178.618 53.1079 178.527 52.9864 178.456 52.8448C178.396 52.7031 178.365 52.5513 178.365 52.3894ZM182.219 42.7057H189.52V44.3753L185.224 53.4519H183.084L187.471 44.436H182.219V42.7057ZM195.406 51.2662H190.837V49.46L195.163 42.7057H197.227V49.627H198.791V51.2662H197.227V53.4519H195.406V51.2662ZM195.406 45.286H195.376L192.689 49.627H195.406V45.286ZM210.109 52.3591H210.079C209.816 52.8043 209.461 53.1281 209.016 53.3305C208.571 53.5329 208.09 53.634 207.574 53.634C207.008 53.634 206.502 53.5379 206.056 53.3457C205.621 53.1433 205.247 52.8701 204.933 52.526C204.62 52.182 204.382 51.7772 204.22 51.3118C204.058 50.8463 203.977 50.3454 203.977 49.8091C203.977 49.2728 204.063 48.7719 204.235 48.3065C204.407 47.841 204.645 47.4362 204.948 47.0922C205.262 46.7482 205.636 46.48 206.072 46.2878C206.507 46.0854 206.982 45.9842 207.498 45.9842C207.842 45.9842 208.146 46.0196 208.409 46.0904C208.672 46.1613 208.905 46.2523 209.107 46.3637C209.31 46.475 209.482 46.5964 209.623 46.7279C209.765 46.8494 209.881 46.9708 209.972 47.0922H210.018V41.9771H211.839V53.4519H210.109V52.3591ZM205.798 49.8091C205.798 50.0924 205.844 50.3657 205.935 50.6287C206.036 50.8918 206.178 51.1246 206.36 51.3269C206.552 51.5293 206.78 51.6912 207.043 51.8127C207.306 51.9341 207.605 51.9948 207.938 51.9948C208.272 51.9948 208.571 51.9341 208.834 51.8127C209.097 51.6912 209.32 51.5293 209.502 51.3269C209.694 51.1246 209.836 50.8918 209.927 50.6287C210.028 50.3657 210.079 50.0924 210.079 49.8091C210.079 49.5258 210.028 49.2526 209.927 48.9895C209.836 48.7264 209.694 48.4937 209.502 48.2913C209.32 48.0889 209.097 47.927 208.834 47.8056C208.571 47.6842 208.272 47.6234 207.938 47.6234C207.605 47.6234 207.306 47.6842 207.043 47.8056C206.78 47.927 206.552 48.0889 206.36 48.2913C206.178 48.4937 206.036 48.7264 205.935 48.9895C205.844 49.2526 205.798 49.5258 205.798 49.8091ZM213.295 49.8091C213.295 49.2323 213.396 48.7112 213.598 48.2458C213.811 47.7702 214.094 47.3654 214.448 47.0315C214.802 46.6976 215.222 46.4395 215.708 46.2574C216.194 46.0753 216.71 45.9842 217.256 45.9842C217.803 45.9842 218.319 46.0753 218.804 46.2574C219.29 46.4395 219.71 46.6976 220.064 47.0315C220.418 47.3654 220.697 47.7702 220.899 48.2458C221.111 48.7112 221.218 49.2323 221.218 49.8091C221.218 50.3859 221.111 50.9121 220.899 51.3877C220.697 51.8531 220.418 52.2528 220.064 52.5867C219.71 52.9207 219.29 53.1787 218.804 53.3608C218.319 53.543 217.803 53.634 217.256 53.634C216.71 53.634 216.194 53.543 215.708 53.3608C215.222 53.1787 214.802 52.9207 214.448 52.5867C214.094 52.2528 213.811 51.8531 213.598 51.3877C213.396 50.9121 213.295 50.3859 213.295 49.8091ZM215.116 49.8091C215.116 50.0924 215.162 50.3657 215.253 50.6287C215.354 50.8918 215.495 51.1246 215.678 51.3269C215.87 51.5293 216.098 51.6912 216.361 51.8127C216.624 51.9341 216.922 51.9948 217.256 51.9948C217.59 51.9948 217.889 51.9341 218.152 51.8127C218.415 51.6912 218.637 51.5293 218.82 51.3269C219.012 51.1246 219.153 50.8918 219.245 50.6287C219.346 50.3657 219.396 50.0924 219.396 49.8091C219.396 49.5258 219.346 49.2526 219.245 48.9895C219.153 48.7264 219.012 48.4937 218.82 48.2913C218.637 48.0889 218.415 47.927 218.152 47.8056C217.889 47.6842 217.59 47.6234 217.256 47.6234C216.922 47.6234 216.624 47.6842 216.361 47.8056C216.098 47.927 215.87 48.0889 215.678 48.2913C215.495 48.4937 215.354 48.7264 215.253 48.9895C215.162 49.2526 215.116 49.5258 215.116 49.8091ZM222.68 46.1663H224.41V47.3351H224.441C224.613 46.9708 224.876 46.6571 225.23 46.394C225.584 46.1208 226.065 45.9842 226.672 45.9842C227.158 45.9842 227.568 46.0651 227.901 46.227C228.246 46.3889 228.524 46.6014 228.736 46.8645C228.949 47.1276 229.101 47.4312 229.192 47.7752C229.283 48.1193 229.328 48.4785 229.328 48.8529V53.4519H227.507V49.7636C227.507 49.5612 227.497 49.3386 227.476 49.0957C227.456 48.8428 227.401 48.61 227.31 48.3975C227.229 48.1749 227.097 47.9928 226.915 47.8511C226.733 47.6993 226.485 47.6234 226.171 47.6234C225.868 47.6234 225.61 47.674 225.397 47.7752C225.195 47.8764 225.023 48.013 224.881 48.185C224.749 48.3571 224.653 48.5544 224.593 48.777C224.532 48.9996 224.502 49.2323 224.502 49.4752V53.4519H222.68V46.1663ZM236.858 50.4466C236.919 50.993 237.132 51.418 237.496 51.7216C237.86 52.0251 238.3 52.1769 238.816 52.1769C239.272 52.1769 239.651 52.0859 239.955 51.9037C240.268 51.7115 240.542 51.4737 240.774 51.1903L242.08 52.1769C241.655 52.7031 241.179 53.0775 240.653 53.3001C240.127 53.5227 239.575 53.634 238.999 53.634C238.452 53.634 237.936 53.543 237.45 53.3608C236.965 53.1787 236.545 52.9207 236.191 52.5867C235.836 52.2528 235.553 51.8531 235.341 51.3877C235.138 50.9121 235.037 50.3859 235.037 49.8091C235.037 49.2323 235.138 48.7112 235.341 48.2458C235.553 47.7702 235.836 47.3654 236.191 47.0315C236.545 46.6976 236.965 46.4395 237.45 46.2574C237.936 46.0753 238.452 45.9842 238.999 45.9842C239.505 45.9842 239.965 46.0753 240.38 46.2574C240.805 46.4294 241.164 46.6824 241.457 47.0163C241.761 47.3502 241.994 47.7651 242.156 48.2609C242.328 48.7466 242.414 49.3082 242.414 49.9457V50.4466H236.858ZM240.592 49.0806C240.582 48.5443 240.415 48.1243 240.091 47.8208C239.768 47.5071 239.317 47.3502 238.741 47.3502C238.194 47.3502 237.759 47.5071 237.435 47.8208C237.122 48.1344 236.929 48.5544 236.858 49.0806H240.592ZM243.874 46.1663H245.604V47.3351H245.635C245.807 46.9708 246.07 46.6571 246.424 46.394C246.778 46.1208 247.259 45.9842 247.866 45.9842C248.352 45.9842 248.762 46.0651 249.095 46.227C249.439 46.3889 249.718 46.6014 249.93 46.8645C250.143 47.1276 250.295 47.4312 250.386 47.7752C250.477 48.1193 250.522 48.4785 250.522 48.8529V53.4519H248.701V49.7636C248.701 49.5612 248.691 49.3386 248.67 49.0957C248.65 48.8428 248.595 48.61 248.503 48.3975C248.423 48.1749 248.291 47.9928 248.109 47.8511C247.927 47.6993 247.679 47.6234 247.365 47.6234C247.062 47.6234 246.804 47.674 246.591 47.7752C246.389 47.8764 246.217 48.013 246.075 48.185C245.943 48.3571 245.847 48.5544 245.787 48.777C245.726 48.9996 245.696 49.2323 245.696 49.4752V53.4519H243.874V46.1663ZM251.497 47.7145V46.1663H253V44.0566H254.821V46.1663H256.825V47.7145H254.821V50.902C254.821 51.2662 254.887 51.5546 255.018 51.7671C255.16 51.9796 255.433 52.0859 255.838 52.0859C256 52.0859 256.177 52.0707 256.369 52.0403C256.561 51.9998 256.713 51.9391 256.825 51.8582V53.3912C256.632 53.4823 256.394 53.543 256.111 53.5733C255.838 53.6138 255.595 53.634 255.383 53.634C254.897 53.634 254.497 53.5784 254.183 53.4671C253.88 53.3659 253.637 53.2091 253.455 52.9966C253.283 52.7739 253.161 52.5007 253.091 52.1769C253.03 51.8531 253 51.4787 253 51.0537V47.7145H251.497ZM259.461 50.4466C259.521 50.993 259.734 51.418 260.098 51.7216C260.462 52.0251 260.902 52.1769 261.419 52.1769C261.874 52.1769 262.253 52.0859 262.557 51.9037C262.871 51.7115 263.144 51.4737 263.377 51.1903L264.682 52.1769C264.257 52.7031 263.781 53.0775 263.255 53.3001C262.729 53.5227 262.177 53.634 261.601 53.634C261.054 53.634 260.538 53.543 260.053 53.3608C259.567 53.1787 259.147 52.9207 258.793 52.5867C258.439 52.2528 258.155 51.8531 257.943 51.3877C257.74 50.9121 257.639 50.3859 257.639 49.8091C257.639 49.2323 257.74 48.7112 257.943 48.2458C258.155 47.7702 258.439 47.3654 258.793 47.0315C259.147 46.6976 259.567 46.4395 260.053 46.2574C260.538 46.0753 261.054 45.9842 261.601 45.9842C262.107 45.9842 262.567 46.0753 262.982 46.2574C263.407 46.4294 263.766 46.6824 264.06 47.0163C264.363 47.3502 264.596 47.7651 264.758 48.2609C264.93 48.7466 265.016 49.3082 265.016 49.9457V50.4466H259.461ZM263.194 49.0806C263.184 48.5443 263.017 48.1243 262.694 47.8208C262.37 47.5071 261.919 47.3502 261.343 47.3502C260.796 47.3502 260.361 47.5071 260.037 47.8208C259.724 48.1344 259.531 48.5544 259.461 49.0806H263.194ZM266.476 46.1663H268.298V47.3199H268.328C268.53 46.8949 268.819 46.566 269.193 46.3333C269.568 46.1006 269.998 45.9842 270.483 45.9842C270.595 45.9842 270.701 45.9943 270.802 46.0145C270.913 46.0348 271.025 46.0601 271.136 46.0904V47.8511C270.984 47.8106 270.832 47.7803 270.681 47.7601C270.539 47.7297 270.397 47.7145 270.256 47.7145C269.831 47.7145 269.487 47.7955 269.223 47.9574C268.971 48.1092 268.773 48.2862 268.632 48.4886C268.5 48.691 268.409 48.8934 268.358 49.0957C268.318 49.2981 268.298 49.4499 268.298 49.5511V53.4519H266.476V46.1663Z" fill="black"/>
    <path d="M324.883 15.2592C324.901 15.4258 324.91 15.5925 324.91 15.7591C324.918 15.9169 324.923 16.0792 324.923 16.2458H324.949C325.046 16.0792 325.168 15.9257 325.318 15.7854C325.467 15.6451 325.633 15.5267 325.817 15.4302C326.002 15.325 326.194 15.2461 326.396 15.1934C326.607 15.1321 326.813 15.1014 327.014 15.1014C327.804 15.1014 328.387 15.3118 328.764 15.7328C329.141 16.145 329.33 16.7369 329.33 17.5086V21.4155H328.461V18.0085C328.461 17.3245 328.343 16.8027 328.106 16.4431C327.869 16.0748 327.431 15.8906 326.791 15.8906C326.747 15.8906 326.624 15.9082 326.422 15.9433C326.221 15.9783 326.006 16.0748 325.778 16.2327C325.559 16.3905 325.361 16.6273 325.186 16.943C325.011 17.2587 324.923 17.6972 324.923 18.2584V21.4155H324.055V16.6141C324.055 16.4475 324.046 16.237 324.028 15.9827C324.02 15.7284 324.006 15.4872 323.989 15.2592H324.883ZM336.323 18.3374C336.323 17.9954 336.266 17.6753 336.152 17.3771C336.047 17.0789 335.894 16.8202 335.692 16.601C335.49 16.3817 335.245 16.2107 334.955 16.088C334.675 15.9564 334.355 15.8906 333.995 15.8906C333.636 15.8906 333.311 15.9564 333.022 16.088C332.741 16.2107 332.5 16.3817 332.298 16.601C332.105 16.8202 331.952 17.0789 331.838 17.3771C331.732 17.6753 331.68 17.9954 331.68 18.3374C331.68 18.6794 331.732 18.9995 331.838 19.2977C331.952 19.5958 332.105 19.8545 332.298 20.0738C332.5 20.293 332.741 20.4684 333.022 20.5999C333.311 20.7227 333.636 20.7841 333.995 20.7841C334.355 20.7841 334.675 20.7227 334.955 20.5999C335.245 20.4684 335.49 20.293 335.692 20.0738C335.894 19.8545 336.047 19.5958 336.152 19.2977C336.266 18.9995 336.323 18.6794 336.323 18.3374ZM337.271 18.3374C337.271 18.8022 337.187 19.2319 337.021 19.6265C336.863 20.0211 336.639 20.3632 336.35 20.6526C336.06 20.942 335.714 21.17 335.311 21.3366C334.916 21.4945 334.477 21.5734 333.995 21.5734C333.522 21.5734 333.083 21.4945 332.68 21.3366C332.285 21.17 331.943 20.942 331.654 20.6526C331.364 20.3632 331.136 20.0211 330.97 19.6265C330.812 19.2319 330.733 18.8022 330.733 18.3374C330.733 17.8726 330.812 17.4429 330.97 17.0482C331.136 16.6536 331.364 16.3116 331.654 16.0222C331.943 15.7328 332.285 15.5092 332.68 15.3513C333.083 15.1847 333.522 15.1014 333.995 15.1014C334.477 15.1014 334.916 15.1847 335.311 15.3513C335.714 15.5092 336.06 15.7328 336.35 16.0222C336.639 16.3116 336.863 16.6536 337.021 17.0482C337.187 17.4429 337.271 17.8726 337.271 18.3374ZM338.793 15.2592L340.214 20.2579H340.24L341.885 15.2592H342.779L344.424 20.2579H344.45L345.871 15.2592H346.897L344.95 21.4155H343.976L342.345 16.3642H342.319L340.688 21.4155H339.714L337.767 15.2592H338.793Z" fill="black" style="mix-blend-mode:overlay"/>
    <path d="M324.883 15.2592C324.901 15.4258 324.91 15.5925 324.91 15.7591C324.918 15.9169 324.923 16.0792 324.923 16.2458H324.949C325.046 16.0792 325.168 15.9257 325.318 15.7854C325.467 15.6451 325.633 15.5267 325.817 15.4302C326.002 15.325 326.194 15.2461 326.396 15.1934C326.607 15.1321 326.813 15.1014 327.014 15.1014C327.804 15.1014 328.387 15.3118 328.764 15.7328C329.141 16.145 329.33 16.7369 329.33 17.5086V21.4155H328.461V18.0085C328.461 17.3245 328.343 16.8027 328.106 16.4431C327.869 16.0748 327.431 15.8906 326.791 15.8906C326.747 15.8906 326.624 15.9082 326.422 15.9433C326.221 15.9783 326.006 16.0748 325.778 16.2327C325.559 16.3905 325.361 16.6273 325.186 16.943C325.011 17.2587 324.923 17.6972 324.923 18.2584V21.4155H324.055V16.6141C324.055 16.4475 324.046 16.237 324.028 15.9827C324.02 15.7284 324.006 15.4872 323.989 15.2592H324.883ZM336.323 18.3374C336.323 17.9954 336.266 17.6753 336.152 17.3771C336.047 17.0789 335.894 16.8202 335.692 16.601C335.49 16.3817 335.245 16.2107 334.955 16.088C334.675 15.9564 334.355 15.8906 333.995 15.8906C333.636 15.8906 333.311 15.9564 333.022 16.088C332.741 16.2107 332.5 16.3817 332.298 16.601C332.105 16.8202 331.952 17.0789 331.838 17.3771C331.732 17.6753 331.68 17.9954 331.68 18.3374C331.68 18.6794 331.732 18.9995 331.838 19.2977C331.952 19.5958 332.105 19.8545 332.298 20.0738C332.5 20.293 332.741 20.4684 333.022 20.5999C333.311 20.7227 333.636 20.7841 333.995 20.7841C334.355 20.7841 334.675 20.7227 334.955 20.5999C335.245 20.4684 335.49 20.293 335.692 20.0738C335.894 19.8545 336.047 19.5958 336.152 19.2977C336.266 18.9995 336.323 18.6794 336.323 18.3374ZM337.271 18.3374C337.271 18.8022 337.187 19.2319 337.021 19.6265C336.863 20.0211 336.639 20.3632 336.35 20.6526C336.06 20.942 335.714 21.17 335.311 21.3366C334.916 21.4945 334.477 21.5734 333.995 21.5734C333.522 21.5734 333.083 21.4945 332.68 21.3366C332.285 21.17 331.943 20.942 331.654 20.6526C331.364 20.3632 331.136 20.0211 330.97 19.6265C330.812 19.2319 330.733 18.8022 330.733 18.3374C330.733 17.8726 330.812 17.4429 330.97 17.0482C331.136 16.6536 331.364 16.3116 331.654 16.0222C331.943 15.7328 332.285 15.5092 332.68 15.3513C333.083 15.1847 333.522 15.1014 333.995 15.1014C334.477 15.1014 334.916 15.1847 335.311 15.3513C335.714 15.5092 336.06 15.7328 336.35 16.0222C336.639 16.3116 336.863 16.6536 337.021 17.0482C337.187 17.4429 337.271 17.8726 337.271 18.3374ZM338.793 15.2592L340.214 20.2579H340.24L341.885 15.2592H342.779L344.424 20.2579H344.45L345.871 15.2592H346.897L344.95 21.4155H343.976L342.345 16.3642H342.319L340.688 21.4155H339.714L337.767 15.2592H338.793Z" fill="#948888"/>
    <path d="M39.8443 15.8292H42.6857C43.0716 15.8292 43.4487 15.8687 43.817 15.9476C44.1853 16.0265 44.5142 16.1581 44.8036 16.3422C45.093 16.5176 45.3254 16.75 45.5008 17.0394C45.6849 17.3288 45.777 17.6884 45.777 18.1181C45.777 18.6618 45.6279 19.1134 45.3298 19.473C45.0404 19.8238 44.6457 20.0737 44.1459 20.2228V20.2491C44.444 20.2754 44.7203 20.3543 44.9746 20.4859C45.2377 20.6087 45.4613 20.7709 45.6455 20.9726C45.8384 21.1743 45.9875 21.4111 46.0927 21.6829C46.198 21.946 46.2506 22.231 46.2506 22.538C46.2506 23.0554 46.141 23.4807 45.9217 23.814C45.7113 24.1472 45.4306 24.4147 45.0798 24.6164C44.7378 24.8093 44.3476 24.9453 43.9091 25.0242C43.4794 25.1031 43.0497 25.1426 42.6199 25.1426H39.8443V15.8292ZM40.9493 19.7755H42.4752C42.7383 19.7755 42.9927 19.758 43.2382 19.7229C43.4925 19.6878 43.7205 19.6177 43.9222 19.5124C44.1239 19.3984 44.2862 19.245 44.409 19.052C44.5317 18.8503 44.5931 18.5872 44.5931 18.2628C44.5931 17.9734 44.5361 17.741 44.4221 17.5656C44.3081 17.3814 44.1546 17.2367 43.9617 17.1315C43.7775 17.0262 43.5627 16.9561 43.3171 16.921C43.0803 16.8772 42.8392 16.8552 42.5936 16.8552H40.9493V19.7755ZM40.9493 24.1165H42.8173C43.0891 24.1165 43.3566 24.0902 43.6197 24.0376C43.8915 23.9762 44.1327 23.8841 44.3432 23.7614C44.5624 23.6298 44.7378 23.4632 44.8694 23.2615C45.0009 23.051 45.0667 22.7967 45.0667 22.4985C45.0667 22.174 45.0009 21.9022 44.8694 21.6829C44.7466 21.4637 44.58 21.2883 44.3695 21.1568C44.1678 21.0252 43.931 20.9331 43.6591 20.8805C43.3961 20.8279 43.1242 20.8016 42.8436 20.8016H40.9493V24.1165ZM47.7223 18.9863H48.7484V25.1426H47.7223V18.9863ZM47.4856 16.579C47.4856 16.3773 47.5557 16.2019 47.696 16.0528C47.8451 15.9037 48.0249 15.8292 48.2354 15.8292C48.4458 15.8292 48.6212 15.9037 48.7616 16.0528C48.9106 16.2019 48.9852 16.3773 48.9852 16.579C48.9852 16.7982 48.915 16.978 48.7747 17.1183C48.6344 17.2586 48.4546 17.3288 48.2354 17.3288C48.0161 17.3288 47.8364 17.2586 47.696 17.1183C47.5557 16.978 47.4856 16.7982 47.4856 16.579ZM53.8423 19.8545H52.027V22.9326C52.027 23.1343 52.0313 23.3229 52.0401 23.4983C52.0489 23.6649 52.084 23.814 52.1453 23.9455C52.2067 24.0683 52.2988 24.1691 52.4216 24.2481C52.5444 24.3182 52.7198 24.3533 52.9478 24.3533C53.0969 24.3533 53.2503 24.3358 53.4082 24.3007C53.566 24.2656 53.7151 24.213 53.8554 24.1428L53.8949 25.0768C53.7195 25.1557 53.5222 25.2127 53.3029 25.2478C53.0925 25.2829 52.8908 25.3004 52.6978 25.3004C52.3295 25.3004 52.0357 25.2522 51.8165 25.1557C51.5972 25.0593 51.4262 24.9233 51.3035 24.7479C51.1807 24.5725 51.0974 24.3577 51.0535 24.1034C51.0184 23.8403 51.0009 23.5509 51.0009 23.2352V19.8545H49.6591V18.9863H51.0009V17.2367H52.027V18.9863H53.8423V19.8545ZM59.1641 20.5253C58.9449 20.2623 58.7081 20.0737 58.4538 19.9597C58.1994 19.8369 57.9188 19.7755 57.6119 19.7755C57.2698 19.7755 56.9673 19.8369 56.7042 19.9597C56.4411 20.0737 56.2219 20.2359 56.0465 20.4464C55.8799 20.6569 55.7527 20.9024 55.665 21.1831C55.5773 21.4549 55.5335 21.7487 55.5335 22.0644C55.5335 22.3801 55.5817 22.6783 55.6782 22.9589C55.7834 23.2308 55.9237 23.472 56.0991 23.6824C56.2833 23.8929 56.5025 24.0595 56.7568 24.1823C57.0111 24.2963 57.2962 24.3533 57.6119 24.3533C58.2871 24.3533 58.8089 24.099 59.1772 23.5903L59.9402 24.3138C59.642 24.6559 59.2913 24.9058 58.8879 25.0637C58.4844 25.2215 58.0591 25.3004 57.6119 25.3004C57.1383 25.3004 56.7042 25.2215 56.3096 25.0637C55.9149 24.9058 55.5773 24.6822 55.2967 24.3928C55.0248 24.1034 54.81 23.7614 54.6521 23.3667C54.503 22.9721 54.4285 22.538 54.4285 22.0644C54.4285 21.5996 54.503 21.1699 54.6521 20.7753C54.81 20.3806 55.0292 20.0386 55.3098 19.7492C55.5905 19.4598 55.9237 19.2362 56.3096 19.0784C56.7042 18.9117 57.1383 18.8284 57.6119 18.8284C58.0679 18.8284 58.4976 18.9073 58.901 19.0652C59.3132 19.2231 59.6727 19.4686 59.9797 19.8018L59.1641 20.5253ZM60.4588 22.0644C60.4588 21.5821 60.5421 21.1436 60.7087 20.749C60.8753 20.3543 61.1034 20.0167 61.3928 19.7361C61.6822 19.4467 62.0286 19.2231 62.432 19.0652C62.8354 18.9073 63.2738 18.8284 63.7474 18.8284C64.221 18.8284 64.6595 18.9073 65.0629 19.0652C65.4663 19.2231 65.8127 19.4467 66.1021 19.7361C66.3915 20.0167 66.6195 20.3543 66.7861 20.749C66.9527 21.1436 67.036 21.5821 67.036 22.0644C67.036 22.5468 66.9527 22.9852 66.7861 23.3799C66.6195 23.7745 66.3915 24.1165 66.1021 24.4059C65.8127 24.6866 65.4663 24.9058 65.0629 25.0637C64.6595 25.2215 64.221 25.3004 63.7474 25.3004C63.2738 25.3004 62.8354 25.2215 62.432 25.0637C62.0286 24.9058 61.6822 24.6866 61.3928 24.4059C61.1034 24.1165 60.8753 23.7745 60.7087 23.3799C60.5421 22.9852 60.4588 22.5468 60.4588 22.0644ZM61.5638 22.0644C61.5638 22.3889 61.612 22.6915 61.7085 22.9721C61.8137 23.2439 61.9628 23.4851 62.1557 23.6956C62.3486 23.8973 62.5767 24.0595 62.8398 24.1823C63.1116 24.2963 63.4142 24.3533 63.7474 24.3533C64.0807 24.3533 64.3788 24.2963 64.6419 24.1823C64.9138 24.0595 65.1462 23.8973 65.3391 23.6956C65.532 23.4851 65.6767 23.2439 65.7732 22.9721C65.8784 22.6915 65.9311 22.3889 65.9311 22.0644C65.9311 21.7399 65.8784 21.4418 65.7732 21.1699C65.6767 20.8893 65.532 20.6481 65.3391 20.4464C65.1462 20.2359 64.9138 20.0737 64.6419 19.9597C64.3788 19.8369 64.0807 19.7755 63.7474 19.7755C63.4142 19.7755 63.1116 19.8369 62.8398 19.9597C62.5767 20.0737 62.3486 20.2359 62.1557 20.4464C61.9628 20.6481 61.8137 20.8893 61.7085 21.1699C61.612 21.4418 61.5638 21.7399 61.5638 22.0644ZM68.4008 18.9863H69.4269V25.1426H68.4008V18.9863ZM68.164 16.579C68.164 16.3773 68.2342 16.2019 68.3745 16.0528C68.5236 15.9037 68.7034 15.8292 68.9138 15.8292C69.1243 15.8292 69.2997 15.9037 69.44 16.0528C69.5891 16.2019 69.6636 16.3773 69.6636 16.579C69.6636 16.7982 69.5935 16.978 69.4532 17.1183C69.3129 17.2586 69.1331 17.3288 68.9138 17.3288C68.6946 17.3288 68.5148 17.2586 68.3745 17.1183C68.2342 16.978 68.164 16.7982 68.164 16.579ZM71.1532 20.4464C71.1532 20.1658 71.1444 19.9027 71.1269 19.6571C71.1093 19.4116 71.1006 19.188 71.1006 18.9863H72.074C72.074 19.1529 72.0784 19.3195 72.0872 19.4861C72.0959 19.6528 72.1003 19.8238 72.1003 19.9992H72.1266C72.1968 19.8501 72.2932 19.7054 72.416 19.5651C72.5476 19.4248 72.701 19.302 72.8764 19.1967C73.0518 19.0827 73.2491 18.995 73.4684 18.9337C73.6876 18.8635 73.9244 18.8284 74.1787 18.8284C74.5821 18.8284 74.9285 18.8898 75.2179 19.0126C75.5161 19.1354 75.7617 19.3064 75.9546 19.5256C76.1475 19.7448 76.2878 20.0123 76.3755 20.328C76.472 20.635 76.5202 20.9726 76.5202 21.3409V25.1426H75.4942V21.4462C75.4942 20.9288 75.3802 20.521 75.1522 20.2228C74.9241 19.9246 74.569 19.7755 74.0866 19.7755C73.7534 19.7755 73.464 19.8325 73.2184 19.9465C72.9817 20.0606 72.7844 20.2228 72.6265 20.4333C72.4774 20.6437 72.3634 20.8937 72.2845 21.1831C72.2143 21.4725 72.1792 21.7926 72.1792 22.1434V25.1426H71.1532V20.4464ZM84.7021 15.8292H85.7413L89.7008 25.1426H88.4117L87.4646 22.8537H82.8079L81.8476 25.1426H80.5979L84.7021 15.8292ZM85.202 17.2499H85.1757L83.242 21.8276H87.0436L85.202 17.2499ZM90.3862 15.1978H91.4123V19.8808H91.4386C91.7192 19.5475 92.0437 19.2888 92.412 19.1047C92.7891 18.9205 93.2013 18.8284 93.6485 18.8284C94.1309 18.8284 94.5693 18.9117 94.964 19.0784C95.3674 19.2362 95.7094 19.4598 95.99 19.7492C96.2707 20.0386 96.4899 20.3806 96.6478 20.7753C96.8056 21.1699 96.8845 21.5996 96.8845 22.0644C96.8845 22.5292 96.8056 22.9589 96.6478 23.3536C96.4899 23.7482 96.2707 24.0902 95.99 24.3796C95.7182 24.669 95.3937 24.897 95.0166 25.0637C94.6395 25.2215 94.2361 25.3004 93.8064 25.3004C93.2539 25.3004 92.7672 25.182 92.3462 24.9453C91.9341 24.6997 91.6315 24.4015 91.4386 24.0508H91.4123V25.1426H90.3862V15.1978ZM91.4123 22.0644C91.4123 22.3889 91.4605 22.6915 91.557 22.9721C91.6622 23.2439 91.8113 23.4851 92.0042 23.6956C92.1971 23.8973 92.4252 24.0595 92.6882 24.1823C92.9601 24.2963 93.2627 24.3533 93.5959 24.3533C93.9292 24.3533 94.2273 24.2963 94.4904 24.1823C94.7623 24.0595 94.9947 23.8973 95.1876 23.6956C95.3805 23.4851 95.5252 23.2439 95.6217 22.9721C95.7269 22.6915 95.7796 22.3889 95.7796 22.0644C95.7796 21.7399 95.7269 21.4418 95.6217 21.1699C95.5252 20.8893 95.3805 20.6481 95.1876 20.4464C94.9947 20.2359 94.7623 20.0737 94.4904 19.9597C94.2273 19.8369 93.9292 19.7755 93.5959 19.7755C93.2627 19.7755 92.9601 19.8369 92.6882 19.9597C92.4252 20.0737 92.1971 20.2359 92.0042 20.4464C91.8113 20.6481 91.6622 20.8893 91.557 21.1699C91.4605 21.4418 91.4123 21.7399 91.4123 22.0644ZM97.8097 22.0644C97.8097 21.5821 97.893 21.1436 98.0596 20.749C98.2262 20.3543 98.4542 20.0167 98.7436 19.7361C99.033 19.4467 99.3794 19.2231 99.7828 19.0652C100.186 18.9073 100.625 18.8284 101.098 18.8284C101.572 18.8284 102.01 18.9073 102.414 19.0652C102.817 19.2231 103.164 19.4467 103.453 19.7361C103.742 20.0167 103.97 20.3543 104.137 20.749C104.304 21.1436 104.387 21.5821 104.387 22.0644C104.387 22.5468 104.304 22.9852 104.137 23.3799C103.97 23.7745 103.742 24.1165 103.453 24.4059C103.164 24.6866 102.817 24.9058 102.414 25.0637C102.01 25.2215 101.572 25.3004 101.098 25.3004C100.625 25.3004 100.186 25.2215 99.7828 25.0637C99.3794 24.9058 99.033 24.6866 98.7436 24.4059C98.4542 24.1165 98.2262 23.7745 98.0596 23.3799C97.893 22.9852 97.8097 22.5468 97.8097 22.0644ZM98.9146 22.0644C98.9146 22.3889 98.9629 22.6915 99.0593 22.9721C99.1646 23.2439 99.3137 23.4851 99.5066 23.6956C99.6995 23.8973 99.9275 24.0595 100.191 24.1823C100.462 24.2963 100.765 24.3533 101.098 24.3533C101.432 24.3533 101.73 24.2963 101.993 24.1823C102.265 24.0595 102.497 23.8973 102.69 23.6956C102.883 23.4851 103.028 23.2439 103.124 22.9721C103.229 22.6915 103.282 22.3889 103.282 22.0644C103.282 21.7399 103.229 21.4418 103.124 21.1699C103.028 20.8893 102.883 20.6481 102.69 20.4464C102.497 20.2359 102.265 20.0737 101.993 19.9597C101.73 19.8369 101.432 19.7755 101.098 19.7755C100.765 19.7755 100.462 19.8369 100.191 19.9597C99.9275 20.0737 99.6995 20.2359 99.5066 20.4464C99.3137 20.6481 99.1646 20.8893 99.0593 21.1699C98.9629 21.4418 98.9146 21.7399 98.9146 22.0644ZM105.66 15.1978H106.686V21.6961L109.488 18.9863H110.948L107.975 21.7882L111.25 25.1426H109.738L106.686 21.9066V25.1426H105.66V15.1978ZM112.013 18.9863H113.039V25.1426H112.013V18.9863ZM111.776 16.579C111.776 16.3773 111.847 16.2019 111.987 16.0528C112.136 15.9037 112.316 15.8292 112.526 15.8292C112.737 15.8292 112.912 15.9037 113.052 16.0528C113.202 16.2019 113.276 16.3773 113.276 16.579C113.276 16.7982 113.206 16.978 113.066 17.1183C112.925 17.2586 112.746 17.3288 112.526 17.3288C112.307 17.3288 112.127 17.2586 111.987 17.1183C111.847 16.978 111.776 16.7982 111.776 16.579Z" fill="black" style="mix-blend-mode:overlay"/>
    <path d="M39.8443 15.8292H42.6857C43.0716 15.8292 43.4487 15.8687 43.817 15.9476C44.1853 16.0265 44.5142 16.1581 44.8036 16.3422C45.093 16.5176 45.3254 16.75 45.5008 17.0394C45.6849 17.3288 45.777 17.6884 45.777 18.1181C45.777 18.6618 45.6279 19.1134 45.3298 19.473C45.0404 19.8238 44.6457 20.0737 44.1459 20.2228V20.2491C44.444 20.2754 44.7203 20.3543 44.9746 20.4859C45.2377 20.6087 45.4613 20.7709 45.6455 20.9726C45.8384 21.1743 45.9875 21.4111 46.0927 21.6829C46.198 21.946 46.2506 22.231 46.2506 22.538C46.2506 23.0554 46.141 23.4807 45.9217 23.814C45.7113 24.1472 45.4306 24.4147 45.0798 24.6164C44.7378 24.8093 44.3476 24.9453 43.9091 25.0242C43.4794 25.1031 43.0497 25.1426 42.6199 25.1426H39.8443V15.8292ZM40.9493 19.7755H42.4752C42.7383 19.7755 42.9927 19.758 43.2382 19.7229C43.4925 19.6878 43.7205 19.6177 43.9222 19.5124C44.1239 19.3984 44.2862 19.245 44.409 19.052C44.5317 18.8503 44.5931 18.5872 44.5931 18.2628C44.5931 17.9734 44.5361 17.741 44.4221 17.5656C44.3081 17.3814 44.1546 17.2367 43.9617 17.1315C43.7775 17.0262 43.5627 16.9561 43.3171 16.921C43.0803 16.8772 42.8392 16.8552 42.5936 16.8552H40.9493V19.7755ZM40.9493 24.1165H42.8173C43.0891 24.1165 43.3566 24.0902 43.6197 24.0376C43.8915 23.9762 44.1327 23.8841 44.3432 23.7614C44.5624 23.6298 44.7378 23.4632 44.8694 23.2615C45.0009 23.051 45.0667 22.7967 45.0667 22.4985C45.0667 22.174 45.0009 21.9022 44.8694 21.6829C44.7466 21.4637 44.58 21.2883 44.3695 21.1568C44.1678 21.0252 43.931 20.9331 43.6591 20.8805C43.3961 20.8279 43.1242 20.8016 42.8436 20.8016H40.9493V24.1165ZM47.7223 18.9863H48.7484V25.1426H47.7223V18.9863ZM47.4856 16.579C47.4856 16.3773 47.5557 16.2019 47.696 16.0528C47.8451 15.9037 48.0249 15.8292 48.2354 15.8292C48.4458 15.8292 48.6212 15.9037 48.7616 16.0528C48.9106 16.2019 48.9852 16.3773 48.9852 16.579C48.9852 16.7982 48.915 16.978 48.7747 17.1183C48.6344 17.2586 48.4546 17.3288 48.2354 17.3288C48.0161 17.3288 47.8364 17.2586 47.696 17.1183C47.5557 16.978 47.4856 16.7982 47.4856 16.579ZM53.8423 19.8545H52.027V22.9326C52.027 23.1343 52.0313 23.3229 52.0401 23.4983C52.0489 23.6649 52.084 23.814 52.1453 23.9455C52.2067 24.0683 52.2988 24.1691 52.4216 24.2481C52.5444 24.3182 52.7198 24.3533 52.9478 24.3533C53.0969 24.3533 53.2503 24.3358 53.4082 24.3007C53.566 24.2656 53.7151 24.213 53.8554 24.1428L53.8949 25.0768C53.7195 25.1557 53.5222 25.2127 53.3029 25.2478C53.0925 25.2829 52.8908 25.3004 52.6978 25.3004C52.3295 25.3004 52.0357 25.2522 51.8165 25.1557C51.5972 25.0593 51.4262 24.9233 51.3035 24.7479C51.1807 24.5725 51.0974 24.3577 51.0535 24.1034C51.0184 23.8403 51.0009 23.5509 51.0009 23.2352V19.8545H49.6591V18.9863H51.0009V17.2367H52.027V18.9863H53.8423V19.8545ZM59.1641 20.5253C58.9449 20.2623 58.7081 20.0737 58.4538 19.9597C58.1994 19.8369 57.9188 19.7755 57.6119 19.7755C57.2698 19.7755 56.9673 19.8369 56.7042 19.9597C56.4411 20.0737 56.2219 20.2359 56.0465 20.4464C55.8799 20.6569 55.7527 20.9024 55.665 21.1831C55.5773 21.4549 55.5335 21.7487 55.5335 22.0644C55.5335 22.3801 55.5817 22.6783 55.6782 22.9589C55.7834 23.2308 55.9237 23.472 56.0991 23.6824C56.2833 23.8929 56.5025 24.0595 56.7568 24.1823C57.0111 24.2963 57.2962 24.3533 57.6119 24.3533C58.2871 24.3533 58.8089 24.099 59.1772 23.5903L59.9402 24.3138C59.642 24.6559 59.2913 24.9058 58.8879 25.0637C58.4844 25.2215 58.0591 25.3004 57.6119 25.3004C57.1383 25.3004 56.7042 25.2215 56.3096 25.0637C55.9149 24.9058 55.5773 24.6822 55.2967 24.3928C55.0248 24.1034 54.81 23.7614 54.6521 23.3667C54.503 22.9721 54.4285 22.538 54.4285 22.0644C54.4285 21.5996 54.503 21.1699 54.6521 20.7753C54.81 20.3806 55.0292 20.0386 55.3098 19.7492C55.5905 19.4598 55.9237 19.2362 56.3096 19.0784C56.7042 18.9117 57.1383 18.8284 57.6119 18.8284C58.0679 18.8284 58.4976 18.9073 58.901 19.0652C59.3132 19.2231 59.6727 19.4686 59.9797 19.8018L59.1641 20.5253ZM60.4588 22.0644C60.4588 21.5821 60.5421 21.1436 60.7087 20.749C60.8753 20.3543 61.1034 20.0167 61.3928 19.7361C61.6822 19.4467 62.0286 19.2231 62.432 19.0652C62.8354 18.9073 63.2738 18.8284 63.7474 18.8284C64.221 18.8284 64.6595 18.9073 65.0629 19.0652C65.4663 19.2231 65.8127 19.4467 66.1021 19.7361C66.3915 20.0167 66.6195 20.3543 66.7861 20.749C66.9527 21.1436 67.036 21.5821 67.036 22.0644C67.036 22.5468 66.9527 22.9852 66.7861 23.3799C66.6195 23.7745 66.3915 24.1165 66.1021 24.4059C65.8127 24.6866 65.4663 24.9058 65.0629 25.0637C64.6595 25.2215 64.221 25.3004 63.7474 25.3004C63.2738 25.3004 62.8354 25.2215 62.432 25.0637C62.0286 24.9058 61.6822 24.6866 61.3928 24.4059C61.1034 24.1165 60.8753 23.7745 60.7087 23.3799C60.5421 22.9852 60.4588 22.5468 60.4588 22.0644ZM61.5638 22.0644C61.5638 22.3889 61.612 22.6915 61.7085 22.9721C61.8137 23.2439 61.9628 23.4851 62.1557 23.6956C62.3486 23.8973 62.5767 24.0595 62.8398 24.1823C63.1116 24.2963 63.4142 24.3533 63.7474 24.3533C64.0807 24.3533 64.3788 24.2963 64.6419 24.1823C64.9138 24.0595 65.1462 23.8973 65.3391 23.6956C65.532 23.4851 65.6767 23.2439 65.7732 22.9721C65.8784 22.6915 65.9311 22.3889 65.9311 22.0644C65.9311 21.7399 65.8784 21.4418 65.7732 21.1699C65.6767 20.8893 65.532 20.6481 65.3391 20.4464C65.1462 20.2359 64.9138 20.0737 64.6419 19.9597C64.3788 19.8369 64.0807 19.7755 63.7474 19.7755C63.4142 19.7755 63.1116 19.8369 62.8398 19.9597C62.5767 20.0737 62.3486 20.2359 62.1557 20.4464C61.9628 20.6481 61.8137 20.8893 61.7085 21.1699C61.612 21.4418 61.5638 21.7399 61.5638 22.0644ZM68.4008 18.9863H69.4269V25.1426H68.4008V18.9863ZM68.164 16.579C68.164 16.3773 68.2342 16.2019 68.3745 16.0528C68.5236 15.9037 68.7034 15.8292 68.9138 15.8292C69.1243 15.8292 69.2997 15.9037 69.44 16.0528C69.5891 16.2019 69.6636 16.3773 69.6636 16.579C69.6636 16.7982 69.5935 16.978 69.4532 17.1183C69.3129 17.2586 69.1331 17.3288 68.9138 17.3288C68.6946 17.3288 68.5148 17.2586 68.3745 17.1183C68.2342 16.978 68.164 16.7982 68.164 16.579ZM71.1532 20.4464C71.1532 20.1658 71.1444 19.9027 71.1269 19.6571C71.1093 19.4116 71.1006 19.188 71.1006 18.9863H72.074C72.074 19.1529 72.0784 19.3195 72.0872 19.4861C72.0959 19.6528 72.1003 19.8238 72.1003 19.9992H72.1266C72.1968 19.8501 72.2932 19.7054 72.416 19.5651C72.5476 19.4248 72.701 19.302 72.8764 19.1967C73.0518 19.0827 73.2491 18.995 73.4684 18.9337C73.6876 18.8635 73.9244 18.8284 74.1787 18.8284C74.5821 18.8284 74.9285 18.8898 75.2179 19.0126C75.5161 19.1354 75.7617 19.3064 75.9546 19.5256C76.1475 19.7448 76.2878 20.0123 76.3755 20.328C76.472 20.635 76.5202 20.9726 76.5202 21.3409V25.1426H75.4942V21.4462C75.4942 20.9288 75.3802 20.521 75.1522 20.2228C74.9241 19.9246 74.569 19.7755 74.0866 19.7755C73.7534 19.7755 73.464 19.8325 73.2184 19.9465C72.9817 20.0606 72.7844 20.2228 72.6265 20.4333C72.4774 20.6437 72.3634 20.8937 72.2845 21.1831C72.2143 21.4725 72.1792 21.7926 72.1792 22.1434V25.1426H71.1532V20.4464ZM84.7021 15.8292H85.7413L89.7008 25.1426H88.4117L87.4646 22.8537H82.8079L81.8476 25.1426H80.5979L84.7021 15.8292ZM85.202 17.2499H85.1757L83.242 21.8276H87.0436L85.202 17.2499ZM90.3862 15.1978H91.4123V19.8808H91.4386C91.7192 19.5475 92.0437 19.2888 92.412 19.1047C92.7891 18.9205 93.2013 18.8284 93.6485 18.8284C94.1309 18.8284 94.5693 18.9117 94.964 19.0784C95.3674 19.2362 95.7094 19.4598 95.99 19.7492C96.2707 20.0386 96.4899 20.3806 96.6478 20.7753C96.8056 21.1699 96.8845 21.5996 96.8845 22.0644C96.8845 22.5292 96.8056 22.9589 96.6478 23.3536C96.4899 23.7482 96.2707 24.0902 95.99 24.3796C95.7182 24.669 95.3937 24.897 95.0166 25.0637C94.6395 25.2215 94.2361 25.3004 93.8064 25.3004C93.2539 25.3004 92.7672 25.182 92.3462 24.9453C91.9341 24.6997 91.6315 24.4015 91.4386 24.0508H91.4123V25.1426H90.3862V15.1978ZM91.4123 22.0644C91.4123 22.3889 91.4605 22.6915 91.557 22.9721C91.6622 23.2439 91.8113 23.4851 92.0042 23.6956C92.1971 23.8973 92.4252 24.0595 92.6882 24.1823C92.9601 24.2963 93.2627 24.3533 93.5959 24.3533C93.9292 24.3533 94.2273 24.2963 94.4904 24.1823C94.7623 24.0595 94.9947 23.8973 95.1876 23.6956C95.3805 23.4851 95.5252 23.2439 95.6217 22.9721C95.7269 22.6915 95.7796 22.3889 95.7796 22.0644C95.7796 21.7399 95.7269 21.4418 95.6217 21.1699C95.5252 20.8893 95.3805 20.6481 95.1876 20.4464C94.9947 20.2359 94.7623 20.0737 94.4904 19.9597C94.2273 19.8369 93.9292 19.7755 93.5959 19.7755C93.2627 19.7755 92.9601 19.8369 92.6882 19.9597C92.4252 20.0737 92.1971 20.2359 92.0042 20.4464C91.8113 20.6481 91.6622 20.8893 91.557 21.1699C91.4605 21.4418 91.4123 21.7399 91.4123 22.0644ZM97.8097 22.0644C97.8097 21.5821 97.893 21.1436 98.0596 20.749C98.2262 20.3543 98.4542 20.0167 98.7436 19.7361C99.033 19.4467 99.3794 19.2231 99.7828 19.0652C100.186 18.9073 100.625 18.8284 101.098 18.8284C101.572 18.8284 102.01 18.9073 102.414 19.0652C102.817 19.2231 103.164 19.4467 103.453 19.7361C103.742 20.0167 103.97 20.3543 104.137 20.749C104.304 21.1436 104.387 21.5821 104.387 22.0644C104.387 22.5468 104.304 22.9852 104.137 23.3799C103.97 23.7745 103.742 24.1165 103.453 24.4059C103.164 24.6866 102.817 24.9058 102.414 25.0637C102.01 25.2215 101.572 25.3004 101.098 25.3004C100.625 25.3004 100.186 25.2215 99.7828 25.0637C99.3794 24.9058 99.033 24.6866 98.7436 24.4059C98.4542 24.1165 98.2262 23.7745 98.0596 23.3799C97.893 22.9852 97.8097 22.5468 97.8097 22.0644ZM98.9146 22.0644C98.9146 22.3889 98.9629 22.6915 99.0593 22.9721C99.1646 23.2439 99.3137 23.4851 99.5066 23.6956C99.6995 23.8973 99.9275 24.0595 100.191 24.1823C100.462 24.2963 100.765 24.3533 101.098 24.3533C101.432 24.3533 101.73 24.2963 101.993 24.1823C102.265 24.0595 102.497 23.8973 102.69 23.6956C102.883 23.4851 103.028 23.2439 103.124 22.9721C103.229 22.6915 103.282 22.3889 103.282 22.0644C103.282 21.7399 103.229 21.4418 103.124 21.1699C103.028 20.8893 102.883 20.6481 102.69 20.4464C102.497 20.2359 102.265 20.0737 101.993 19.9597C101.73 19.8369 101.432 19.7755 101.098 19.7755C100.765 19.7755 100.462 19.8369 100.191 19.9597C99.9275 20.0737 99.6995 20.2359 99.5066 20.4464C99.3137 20.6481 99.1646 20.8893 99.0593 21.1699C98.9629 21.4418 98.9146 21.7399 98.9146 22.0644ZM105.66 15.1978H106.686V21.6961L109.488 18.9863H110.948L107.975 21.7882L111.25 25.1426H109.738L106.686 21.9066V25.1426H105.66V15.1978ZM112.013 18.9863H113.039V25.1426H112.013V18.9863ZM111.776 16.579C111.776 16.3773 111.847 16.2019 111.987 16.0528C112.136 15.9037 112.316 15.8292 112.526 15.8292C112.737 15.8292 112.912 15.9037 113.052 16.0528C113.202 16.2019 113.276 16.3773 113.276 16.579C113.276 16.7982 113.206 16.978 113.066 17.1183C112.925 17.2586 112.746 17.3288 112.526 17.3288C112.307 17.3288 112.127 17.2586 111.987 17.1183C111.847 16.978 111.776 16.7982 111.776 16.579Z" fill="#948888"/>
    <rect x="13.1545" y="12.1426" width="18.2139" height="18.2139" rx="3.03566" fill="white"/>
    <path d="M26.2864 26.7769H22.124C21.9506 26.7769 21.7772 26.7612 21.6195 26.7454C20.1059 26.5404 18.8288 25.5314 18.277 24.1124C18.1824 23.8444 18.1036 23.5763 18.0563 23.2925C18.0247 23.1506 18.009 23.0087 18.009 22.8668C18.009 22.7249 17.9932 22.583 18.009 22.4411C18.0405 21.5425 18.3874 20.6753 18.955 19.9973C19.3491 19.5243 19.8379 19.1302 20.4055 18.8779C20.7208 18.736 21.0677 18.6256 21.4145 18.5626C21.5407 18.5468 21.6668 18.531 21.7929 18.5153C21.9664 18.4995 22.1556 18.4995 22.329 18.4995C22.6759 18.5153 23.0069 18.5626 23.338 18.6729C24.757 19.0986 25.8449 20.2496 26.1918 21.7001C26.2233 21.8578 26.2549 22.0154 26.2706 22.1731C26.2864 22.3623 26.3022 22.5357 26.3022 22.7249C26.3022 24.0651 26.3022 25.4052 26.3022 26.7454L26.2864 26.7769ZM23.5903 25.626H25.0566C25.1354 25.626 25.1197 25.626 25.1197 25.5471C25.1197 24.6169 25.1197 23.7025 25.1197 22.7722C25.1197 22.6934 25.1197 22.6146 25.1197 22.5357C25.1197 22.4096 25.1039 22.2677 25.0881 22.1416C24.9935 21.574 24.7413 21.0379 24.3471 20.6122C23.811 20.0289 23.07 19.682 22.2817 19.6505C21.7456 19.6189 21.2253 19.7451 20.7523 19.9816C19.8063 20.4703 19.2072 21.4321 19.1442 22.4884C19.1126 23.0718 19.2545 23.6709 19.5698 24.1755C19.9955 24.885 20.6893 25.3895 21.5091 25.5629C21.7299 25.6102 21.9664 25.626 22.2029 25.626H23.5903Z" fill="#EC3524"/>
    <path d="M18.01 14.7629H22.1723C22.3458 14.7629 22.5192 14.7787 22.6926 14.7945C24.2062 14.9994 25.4833 15.9927 26.0351 17.4117C26.1297 17.6797 26.2086 17.9478 26.2559 18.2316C26.2874 18.3735 26.3032 18.5154 26.3032 18.6573C26.3032 18.7992 26.3189 18.9411 26.3032 19.083C26.2716 19.9817 25.9248 20.8488 25.3572 21.5425C24.963 22.0155 24.4743 22.4097 23.9067 22.662C23.5913 22.8039 23.2445 22.9142 22.8976 22.9773C22.7715 22.9931 22.6453 23.0088 22.5192 23.0246C22.3458 23.0404 22.1566 23.0404 21.9831 23.0404C21.6363 23.0246 21.3052 22.9773 20.9741 22.8669C19.5551 22.4412 18.4672 21.2903 18.1203 19.8398C18.0888 19.6821 18.0573 19.5244 18.0415 19.3668C18.0257 19.1933 18.01 19.0041 18.01 18.8307C18.01 17.4905 18.01 16.1504 18.01 14.8102V14.7629ZM20.7061 15.9139H19.2398C19.1609 15.9139 19.1767 15.9139 19.1767 15.9927C19.1767 16.923 19.1767 17.8374 19.1767 18.7676C19.1767 18.8465 19.1767 18.9253 19.1767 19.0041C19.1767 19.1303 19.1925 19.2722 19.2082 19.3983C19.3028 19.9659 19.5551 20.502 19.9493 20.9277C20.4853 21.511 21.2264 21.8579 22.0147 21.8894C22.5507 21.9209 23.071 21.7948 23.544 21.5583C24.49 21.0696 25.1049 20.1078 25.1522 19.0514C25.1837 18.4681 25.0261 17.8847 24.7265 17.3802C24.3008 16.6707 23.6071 16.1662 22.7872 15.9927C22.5665 15.9454 22.33 15.9297 22.0935 15.9297L20.7061 15.9139Z" fill="#F1B83F"/>
    <defs>
    <filter id="filter0_b" x="-55.0118" y="-55.0118" width="473.29" height="201.093" filterUnits="userSpaceOnUse" color-interpolation-filters="sRGB">
    <feFlood flood-opacity="0" result="BackgroundImageFix"/>
    <feGaussianBlur in="BackgroundImage" stdDeviation="27.5059"/>
    <feComposite in2="SourceAlpha" operator="in" result="effect1_backgroundBlur"/>
    <feBlend mode="normal" in="SourceGraphic" in2="effect1_backgroundBlur" result="shape"/>
    </filter>
    </defs>
</svg>    